<svg width="21" height="20" viewBox="0 0 21 20" fill="none" xmlns="http://www.w3.org/2000/svg">
<path d="M9.83498 8.99446C11.9162 8.99446 13.6033 7.38766 13.6033 5.40557C13.6033 3.42348 11.9162 1.81668 9.83498 1.81668C7.75379 1.81668 6.06665 3.42348 6.06665 5.40557C6.06665 7.38766 7.75379 8.99446 9.83498 8.99446Z" fill="#1B60AC"/>
<path d="M12.25 15.5555H16.3333V16.3333H12.25V15.5555Z" fill="#1B60AC"/>
<path d="M8.75003 16.6667V18.3333C8.75003 18.4807 8.81149 18.622 8.92088 18.7262C9.03028 18.8304 9.17865 18.8889 9.33336 18.8889H19.25C19.4047 18.8889 19.5531 18.8304 19.6625 18.7262C19.7719 18.622 19.8334 18.4807 19.8334 18.3333V12.7778C19.8334 12.6304 19.7719 12.4891 19.6625 12.3849C19.5531 12.2808 19.4047 12.2222 19.25 12.2222H15.1667V11.4056C15.1667 11.2582 15.1052 11.1169 14.9958 11.0127C14.8864 10.9085 14.7381 10.85 14.5834 10.85C14.4287 10.85 14.2803 10.9085 14.1709 11.0127C14.0615 11.1169 14 11.2582 14 11.4056V12.2222H12.8334V10.2333C11.8421 10.0789 10.8394 10.0008 9.83503 10C7.61999 9.99103 5.42978 10.4442 3.41836 11.3278C3.08731 11.4766 2.80802 11.7127 2.61364 12.0081C2.41926 12.3035 2.31793 12.6458 2.3217 12.9945V16.6667H8.75003ZM18.6667 17.7778H9.91669V13.3333H14V13.5667C14 13.714 14.0615 13.8553 14.1709 13.9595C14.2803 14.0637 14.4287 14.1222 14.5834 14.1222C14.7381 14.1222 14.8864 14.0637 14.9958 13.9595C15.1052 13.8553 15.1667 13.714 15.1667 13.5667V13.3333H18.6667V17.7778Z" fill="#1B60AC"/>
</svg>
