<svg width="50" height="51" viewBox="0 0 50 51" fill="none" xmlns="http://www.w3.org/2000/svg">
<circle cx="25" cy="25.5" r="25" fill="#1B60AC"/>
<path d="M10.5382 15.9986H12.5482C12.6522 15.9986 12.7382 16.0326 12.8062 16.1006C12.8782 16.1646 12.9142 16.2486 12.9142 16.3526C12.9142 16.4526 12.8782 16.5346 12.8062 16.5986C12.7382 16.6586 12.6522 16.6886 12.5482 16.6886H10.8682L10.9222 16.5866V17.7566L10.8742 17.7086H12.2782C12.3822 17.7086 12.4682 17.7426 12.5362 17.8106C12.6082 17.8746 12.6442 17.9586 12.6442 18.0626C12.6442 18.1626 12.6082 18.2446 12.5362 18.3086C12.4682 18.3686 12.3822 18.3986 12.2782 18.3986H10.8922L10.9222 18.3506V19.5626L10.8742 19.5086H12.5482C12.6522 19.5086 12.7382 19.5446 12.8062 19.6166C12.8782 19.6846 12.9142 19.7646 12.9142 19.8566C12.9142 19.9566 12.8782 20.0386 12.8062 20.1026C12.7382 20.1666 12.6522 20.1986 12.5482 20.1986H10.5382C10.4342 20.1986 10.3462 20.1646 10.2742 20.0966C10.2062 20.0246 10.1722 19.9366 10.1722 19.8326V16.3646C10.1722 16.2606 10.2062 16.1746 10.2742 16.1066C10.3462 16.0346 10.4342 15.9986 10.5382 15.9986ZM16.1445 16.9886C16.2485 16.9886 16.3345 17.0226 16.4025 17.0906C16.4705 17.1586 16.5045 17.2466 16.5045 17.3546V21.0326C16.5045 21.1366 16.4705 21.2226 16.4025 21.2906C16.3345 21.3626 16.2485 21.3986 16.1445 21.3986C16.0405 21.3986 15.9545 21.3626 15.8865 21.2906C15.8185 21.2226 15.7845 21.1366 15.7845 21.0326V19.5386L15.9165 19.5926C15.9165 19.6446 15.8885 19.7086 15.8325 19.7846C15.7765 19.8566 15.7005 19.9286 15.6045 20.0006C15.5085 20.0726 15.3945 20.1346 15.2625 20.1866C15.1345 20.2346 14.9945 20.2586 14.8425 20.2586C14.5665 20.2586 14.3165 20.1886 14.0925 20.0486C13.8685 19.9046 13.6905 19.7086 13.5585 19.4606C13.4305 19.2086 13.3665 18.9206 13.3665 18.5966C13.3665 18.2686 13.4305 17.9806 13.5585 17.7326C13.6905 17.4806 13.8665 17.2846 14.0865 17.1446C14.3065 17.0006 14.5505 16.9286 14.8185 16.9286C14.9905 16.9286 15.1485 16.9546 15.2925 17.0066C15.4365 17.0586 15.5605 17.1246 15.6645 17.2046C15.7725 17.2846 15.8545 17.3666 15.9105 17.4506C15.9705 17.5306 16.0005 17.5986 16.0005 17.6546L15.7845 17.7326V17.3546C15.7845 17.2506 15.8185 17.1646 15.8865 17.0966C15.9545 17.0246 16.0405 16.9886 16.1445 16.9886ZM14.9325 19.5986C15.1085 19.5986 15.2625 19.5546 15.3945 19.4666C15.5265 19.3786 15.6285 19.2586 15.7005 19.1066C15.7765 18.9546 15.8145 18.7846 15.8145 18.5966C15.8145 18.4046 15.7765 18.2326 15.7005 18.0806C15.6285 17.9286 15.5265 17.8086 15.3945 17.7206C15.2625 17.6326 15.1085 17.5886 14.9325 17.5886C14.7605 17.5886 14.6085 17.6326 14.4765 17.7206C14.3445 17.8086 14.2405 17.9286 14.1645 18.0806C14.0925 18.2326 14.0565 18.4046 14.0565 18.5966C14.0565 18.7846 14.0925 18.9546 14.1645 19.1066C14.2405 19.2586 14.3445 19.3786 14.4765 19.4666C14.6085 19.5546 14.7605 19.5986 14.9325 19.5986ZM19.6661 16.9886C19.7701 16.9886 19.8561 17.0246 19.9241 17.0966C19.9921 17.1646 20.0261 17.2506 20.0261 17.3546V18.8786C20.0261 19.3026 19.9081 19.6386 19.6721 19.8866C19.4361 20.1346 19.0961 20.2586 18.6521 20.2586C18.2081 20.2586 17.8681 20.1346 17.6321 19.8866C17.4001 19.6386 17.2841 19.3026 17.2841 18.8786V17.3546C17.2841 17.2506 17.3181 17.1646 17.3861 17.0966C17.4541 17.0246 17.5401 16.9886 17.6441 16.9886C17.7481 16.9886 17.8341 17.0246 17.9021 17.0966C17.9701 17.1646 18.0041 17.2506 18.0041 17.3546V18.8786C18.0041 19.1226 18.0581 19.3046 18.1661 19.4246C18.2741 19.5406 18.4361 19.5986 18.6521 19.5986C18.8721 19.5986 19.0361 19.5406 19.1441 19.4246C19.2521 19.3046 19.3061 19.1226 19.3061 18.8786V17.3546C19.3061 17.2506 19.3401 17.1646 19.4081 17.0966C19.4761 17.0246 19.5621 16.9886 19.6661 16.9886ZM21.4836 19.8326C21.4836 19.9366 21.4496 20.0246 21.3816 20.0966C21.3136 20.1646 21.2276 20.1986 21.1236 20.1986C21.0196 20.1986 20.9336 20.1646 20.8656 20.0966C20.7976 20.0246 20.7636 19.9366 20.7636 19.8326V17.3546C20.7636 17.2506 20.7976 17.1646 20.8656 17.0966C20.9336 17.0246 21.0196 16.9886 21.1236 16.9886C21.2276 16.9886 21.3136 17.0246 21.3816 17.0966C21.4496 17.1646 21.4836 17.2506 21.4836 17.3546V19.8326ZM21.1176 16.5986C20.9816 16.5986 20.8856 16.5766 20.8296 16.5326C20.7736 16.4886 20.7456 16.4106 20.7456 16.2986V16.1846C20.7456 16.0686 20.7756 15.9906 20.8356 15.9506C20.8996 15.9066 20.9956 15.8846 21.1236 15.8846C21.2636 15.8846 21.3616 15.9066 21.4176 15.9506C21.4736 15.9946 21.5016 16.0726 21.5016 16.1846V16.2986C21.5016 16.4146 21.4716 16.4946 21.4116 16.5386C21.3516 16.5786 21.2536 16.5986 21.1176 16.5986ZM23.8856 16.9286C24.1656 16.9286 24.4156 17.0006 24.6356 17.1446C24.8596 17.2846 25.0356 17.4786 25.1636 17.7266C25.2956 17.9746 25.3616 18.2626 25.3616 18.5906C25.3616 18.9186 25.2956 19.2086 25.1636 19.4606C25.0356 19.7086 24.8616 19.9046 24.6416 20.0486C24.4256 20.1886 24.1816 20.2586 23.9096 20.2586C23.7496 20.2586 23.5996 20.2326 23.4596 20.1806C23.3196 20.1286 23.1956 20.0626 23.0876 19.9826C22.9836 19.9026 22.9016 19.8226 22.8416 19.7426C22.7856 19.6586 22.7576 19.5886 22.7576 19.5326L22.9436 19.4546V21.0326C22.9436 21.1366 22.9096 21.2226 22.8416 21.2906C22.7736 21.3626 22.6876 21.3986 22.5836 21.3986C22.4796 21.3986 22.3936 21.3646 22.3256 21.2966C22.2576 21.2286 22.2236 21.1406 22.2236 21.0326V17.3546C22.2236 17.2506 22.2576 17.1646 22.3256 17.0966C22.3936 17.0246 22.4796 16.9886 22.5836 16.9886C22.6876 16.9886 22.7736 17.0246 22.8416 17.0966C22.9096 17.1646 22.9436 17.2506 22.9436 17.3546V17.6486L22.8416 17.5946C22.8416 17.5426 22.8696 17.4806 22.9256 17.4086C22.9816 17.3326 23.0576 17.2586 23.1536 17.1866C23.2496 17.1106 23.3596 17.0486 23.4836 17.0006C23.6116 16.9526 23.7456 16.9286 23.8856 16.9286ZM23.7956 17.5886C23.6196 17.5886 23.4656 17.6326 23.3336 17.7206C23.2016 17.8086 23.0976 17.9286 23.0216 18.0806C22.9496 18.2286 22.9136 18.3986 22.9136 18.5906C22.9136 18.7786 22.9496 18.9506 23.0216 19.1066C23.0976 19.2586 23.2016 19.3786 23.3336 19.4666C23.4656 19.5546 23.6196 19.5986 23.7956 19.5986C23.9716 19.5986 24.1236 19.5546 24.2516 19.4666C24.3836 19.3786 24.4856 19.2586 24.5576 19.1066C24.6336 18.9506 24.6716 18.7786 24.6716 18.5906C24.6716 18.3986 24.6336 18.2286 24.5576 18.0806C24.4856 17.9286 24.3836 17.8086 24.2516 17.7206C24.1236 17.6326 23.9716 17.5886 23.7956 17.5886ZM27.6771 16.9286C27.9971 16.9286 28.2331 17.0066 28.3851 17.1626C28.5371 17.3146 28.6371 17.5126 28.6851 17.7566L28.5831 17.7026L28.6311 17.6066C28.6791 17.5146 28.7531 17.4166 28.8531 17.3126C28.9531 17.2046 29.0731 17.1146 29.2131 17.0426C29.3571 16.9666 29.5171 16.9286 29.6931 16.9286C29.9811 16.9286 30.1991 16.9906 30.3471 17.1146C30.4991 17.2386 30.6031 17.4046 30.6591 17.6126C30.7151 17.8166 30.7431 18.0446 30.7431 18.2966V19.8326C30.7431 19.9366 30.7091 20.0246 30.6411 20.0966C30.5731 20.1646 30.4871 20.1986 30.3831 20.1986C30.2791 20.1986 30.1931 20.1646 30.1251 20.0966C30.0571 20.0246 30.0231 19.9366 30.0231 19.8326V18.2966C30.0231 18.1646 30.0071 18.0466 29.9751 17.9426C29.9431 17.8346 29.8851 17.7486 29.8011 17.6846C29.7171 17.6206 29.5971 17.5886 29.4411 17.5886C29.2891 17.5886 29.1591 17.6206 29.0511 17.6846C28.9431 17.7486 28.8611 17.8346 28.8051 17.9426C28.7531 18.0466 28.7271 18.1646 28.7271 18.2966V19.8326C28.7271 19.9366 28.6931 20.0246 28.6251 20.0966C28.5571 20.1646 28.4711 20.1986 28.3671 20.1986C28.2631 20.1986 28.1771 20.1646 28.1091 20.0966C28.0411 20.0246 28.0071 19.9366 28.0071 19.8326V18.2966C28.0071 18.1646 27.9911 18.0466 27.9591 17.9426C27.9271 17.8346 27.8691 17.7486 27.7851 17.6846C27.7011 17.6206 27.5811 17.5886 27.4251 17.5886C27.2731 17.5886 27.1431 17.6206 27.0351 17.6846C26.9271 17.7486 26.8451 17.8346 26.7891 17.9426C26.7371 18.0466 26.7111 18.1646 26.7111 18.2966V19.8326C26.7111 19.9366 26.6771 20.0246 26.6091 20.0966C26.5411 20.1646 26.4551 20.1986 26.3511 20.1986C26.2471 20.1986 26.1611 20.1646 26.0931 20.0966C26.0251 20.0246 25.9911 19.9366 25.9911 19.8326V17.3546C25.9911 17.2506 26.0251 17.1646 26.0931 17.0966C26.1611 17.0246 26.2471 16.9886 26.3511 16.9886C26.4551 16.9886 26.5411 17.0246 26.6091 17.0966C26.6771 17.1646 26.7111 17.2506 26.7111 17.3546V17.6126L26.6211 17.5946C26.6571 17.5266 26.7071 17.4546 26.7711 17.3786C26.8351 17.2986 26.9131 17.2246 27.0051 17.1566C27.0971 17.0886 27.1991 17.0346 27.3111 16.9946C27.4231 16.9506 27.5451 16.9286 27.6771 16.9286ZM33.0344 20.2586C32.6944 20.2586 32.3984 20.1886 32.1464 20.0486C31.8984 19.9046 31.7064 19.7106 31.5704 19.4666C31.4384 19.2226 31.3724 18.9466 31.3724 18.6386C31.3724 18.2786 31.4444 17.9726 31.5884 17.7206C31.7364 17.4646 31.9284 17.2686 32.1644 17.1326C32.4004 16.9966 32.6504 16.9286 32.9144 16.9286C33.1184 16.9286 33.3104 16.9706 33.4904 17.0546C33.6744 17.1386 33.8364 17.2546 33.9764 17.4026C34.1164 17.5466 34.2264 17.7146 34.3064 17.9066C34.3904 18.0986 34.4324 18.3026 34.4324 18.5186C34.4284 18.6146 34.3904 18.6926 34.3184 18.7526C34.2464 18.8126 34.1624 18.8426 34.0664 18.8426H31.7744L31.5944 18.2426H33.7964L33.6644 18.3626V18.2006C33.6564 18.0846 33.6144 17.9806 33.5384 17.8886C33.4664 17.7966 33.3744 17.7246 33.2624 17.6726C33.1544 17.6166 33.0384 17.5886 32.9144 17.5886C32.7944 17.5886 32.6824 17.6046 32.5784 17.6366C32.4744 17.6686 32.3844 17.7226 32.3084 17.7986C32.2324 17.8746 32.1724 17.9766 32.1284 18.1046C32.0844 18.2326 32.0624 18.3946 32.0624 18.5906C32.0624 18.8066 32.1064 18.9906 32.1944 19.1426C32.2864 19.2906 32.4024 19.4046 32.5424 19.4846C32.6864 19.5606 32.8384 19.5986 32.9984 19.5986C33.1464 19.5986 33.2644 19.5866 33.3524 19.5626C33.4404 19.5386 33.5104 19.5106 33.5624 19.4786C33.6184 19.4426 33.6684 19.4126 33.7124 19.3886C33.7844 19.3526 33.8524 19.3346 33.9164 19.3346C34.0044 19.3346 34.0764 19.3646 34.1324 19.4246C34.1924 19.4846 34.2224 19.5546 34.2224 19.6346C34.2224 19.7426 34.1664 19.8406 34.0544 19.9286C33.9504 20.0166 33.8044 20.0946 33.6164 20.1626C33.4284 20.2266 33.2344 20.2586 33.0344 20.2586ZM36.7774 16.9286C37.0734 16.9286 37.2974 16.9906 37.4494 17.1146C37.6054 17.2386 37.7114 17.4046 37.7674 17.6126C37.8274 17.8166 37.8574 18.0446 37.8574 18.2966V19.8326C37.8574 19.9366 37.8234 20.0246 37.7554 20.0966C37.6874 20.1646 37.6014 20.1986 37.4974 20.1986C37.3934 20.1986 37.3074 20.1646 37.2394 20.0966C37.1714 20.0246 37.1374 19.9366 37.1374 19.8326V18.2966C37.1374 18.1646 37.1194 18.0466 37.0834 17.9426C37.0514 17.8346 36.9914 17.7486 36.9034 17.6846C36.8154 17.6206 36.6894 17.5886 36.5254 17.5886C36.3654 17.5886 36.2294 17.6206 36.1174 17.6846C36.0094 17.7486 35.9254 17.8346 35.8654 17.9426C35.8094 18.0466 35.7814 18.1646 35.7814 18.2966V19.8326C35.7814 19.9366 35.7474 20.0246 35.6794 20.0966C35.6114 20.1646 35.5254 20.1986 35.4214 20.1986C35.3174 20.1986 35.2314 20.1646 35.1634 20.0966C35.0954 20.0246 35.0614 19.9366 35.0614 19.8326V17.3546C35.0614 17.2506 35.0954 17.1646 35.1634 17.0966C35.2314 17.0246 35.3174 16.9886 35.4214 16.9886C35.5254 16.9886 35.6114 17.0246 35.6794 17.0966C35.7474 17.1646 35.7814 17.2506 35.7814 17.3546V17.6126L35.6914 17.5946C35.7274 17.5266 35.7794 17.4546 35.8474 17.3786C35.9154 17.2986 35.9954 17.2246 36.0874 17.1566C36.1794 17.0886 36.2834 17.0346 36.3994 16.9946C36.5154 16.9506 36.6414 16.9286 36.7774 16.9286ZM38.6717 17.0486H40.0937C40.1897 17.0486 40.2697 17.0806 40.3337 17.1446C40.3977 17.2086 40.4297 17.2886 40.4297 17.3846C40.4297 17.4766 40.3977 17.5546 40.3337 17.6186C40.2697 17.6786 40.1897 17.7086 40.0937 17.7086H38.6717C38.5757 17.7086 38.4957 17.6766 38.4317 17.6126C38.3677 17.5486 38.3357 17.4686 38.3357 17.3726C38.3357 17.2806 38.3677 17.2046 38.4317 17.1446C38.4957 17.0806 38.5757 17.0486 38.6717 17.0486ZM39.3137 16.2986C39.4177 16.2986 39.5017 16.3346 39.5657 16.4066C39.6337 16.4746 39.6677 16.5606 39.6677 16.6646V19.3346C39.6677 19.3906 39.6777 19.4366 39.6977 19.4726C39.7217 19.5086 39.7517 19.5346 39.7877 19.5506C39.8277 19.5666 39.8697 19.5746 39.9137 19.5746C39.9617 19.5746 40.0057 19.5666 40.0457 19.5506C40.0857 19.5306 40.1317 19.5206 40.1837 19.5206C40.2397 19.5206 40.2897 19.5466 40.3337 19.5986C40.3817 19.6506 40.4057 19.7226 40.4057 19.8146C40.4057 19.9266 40.3437 20.0186 40.2197 20.0906C40.0997 20.1626 39.9697 20.1986 39.8297 20.1986C39.7457 20.1986 39.6517 20.1926 39.5477 20.1806C39.4477 20.1646 39.3517 20.1306 39.2597 20.0786C39.1717 20.0226 39.0977 19.9386 39.0377 19.8266C38.9777 19.7146 38.9477 19.5606 38.9477 19.3646V16.6646C38.9477 16.5606 38.9817 16.4746 39.0497 16.4066C39.1217 16.3346 39.2097 16.2986 39.3137 16.2986ZM11.9722 23.9986C12.2602 23.9986 12.5162 24.0526 12.7402 24.1606C12.9642 24.2686 13.1522 24.4206 13.3042 24.6166C13.4602 24.8086 13.5762 25.0326 13.6522 25.2886C13.7322 25.5406 13.7722 25.8106 13.7722 26.0986C13.7722 26.4866 13.7022 26.8406 13.5622 27.1606C13.4222 27.4766 13.2182 27.7286 12.9502 27.9166C12.6862 28.1046 12.3602 28.1986 11.9722 28.1986H10.5382C10.4342 28.1986 10.3462 28.1646 10.2742 28.0966C10.2062 28.0246 10.1722 27.9366 10.1722 27.8326V24.3646C10.1722 24.2606 10.2062 24.1746 10.2742 24.1066C10.3462 24.0346 10.4342 23.9986 10.5382 23.9986H11.9722ZM11.9122 27.5086C12.1642 27.5086 12.3702 27.4446 12.5302 27.3166C12.6902 27.1846 12.8062 27.0126 12.8782 26.8006C12.9542 26.5846 12.9922 26.3506 12.9922 26.0986C12.9922 25.9106 12.9702 25.7326 12.9262 25.5646C12.8862 25.3926 12.8222 25.2426 12.7342 25.1146C12.6462 24.9826 12.5342 24.8786 12.3982 24.8026C12.2622 24.7266 12.1002 24.6886 11.9122 24.6886H10.8622L10.9222 24.6346V27.5746L10.8862 27.5086H11.9122ZM15.0793 27.8326C15.0793 27.9366 15.0453 28.0246 14.9773 28.0966C14.9093 28.1646 14.8233 28.1986 14.7193 28.1986C14.6153 28.1986 14.5293 28.1646 14.4613 28.0966C14.3933 28.0246 14.3593 27.9366 14.3593 27.8326V25.3546C14.3593 25.2506 14.3933 25.1646 14.4613 25.0966C14.5293 25.0246 14.6153 24.9886 14.7193 24.9886C14.8233 24.9886 14.9093 25.0246 14.9773 25.0966C15.0453 25.1646 15.0793 25.2506 15.0793 25.3546V27.8326ZM14.7133 24.5986C14.5773 24.5986 14.4813 24.5766 14.4253 24.5326C14.3693 24.4886 14.3413 24.4106 14.3413 24.2986V24.1846C14.3413 24.0686 14.3713 23.9906 14.4313 23.9506C14.4953 23.9066 14.5913 23.8846 14.7193 23.8846C14.8593 23.8846 14.9573 23.9066 15.0133 23.9506C15.0693 23.9946 15.0973 24.0726 15.0973 24.1846V24.2986C15.0973 24.4146 15.0673 24.4946 15.0073 24.5386C14.9473 24.5786 14.8493 24.5986 14.7133 24.5986ZM15.6333 27.7006C15.5933 27.6446 15.5753 27.5726 15.5793 27.4846C15.5833 27.3966 15.6353 27.3206 15.7353 27.2566C15.7993 27.2166 15.8673 27.2006 15.9393 27.2086C16.0113 27.2126 16.0813 27.2486 16.1493 27.3166C16.2653 27.4326 16.3873 27.5226 16.5153 27.5866C16.6433 27.6506 16.8033 27.6826 16.9953 27.6826C17.0553 27.6786 17.1213 27.6706 17.1933 27.6586C17.2653 27.6426 17.3273 27.6106 17.3793 27.5626C17.4353 27.5106 17.4633 27.4326 17.4633 27.3286C17.4633 27.2406 17.4333 27.1706 17.3733 27.1186C17.3133 27.0666 17.2333 27.0226 17.1333 26.9866C17.0373 26.9506 16.9293 26.9166 16.8093 26.8846C16.6853 26.8486 16.5573 26.8086 16.4253 26.7646C16.2973 26.7206 16.1793 26.6646 16.0713 26.5966C15.9633 26.5246 15.8753 26.4306 15.8073 26.3146C15.7393 26.1986 15.7053 26.0526 15.7053 25.8766C15.7053 25.6766 15.7613 25.5066 15.8733 25.3666C15.9853 25.2266 16.1293 25.1186 16.3053 25.0426C16.4853 24.9666 16.6733 24.9286 16.8693 24.9286C16.9933 24.9286 17.1233 24.9446 17.2593 24.9766C17.3953 25.0046 17.5253 25.0526 17.6493 25.1206C17.7733 25.1846 17.8773 25.2706 17.9613 25.3786C18.0053 25.4386 18.0313 25.5106 18.0393 25.5946C18.0473 25.6786 18.0093 25.7546 17.9253 25.8226C17.8653 25.8706 17.7953 25.8926 17.7153 25.8886C17.6353 25.8806 17.5693 25.8526 17.5173 25.8046C17.4493 25.7166 17.3573 25.6466 17.2413 25.5946C17.1293 25.5426 16.9993 25.5166 16.8513 25.5166C16.7913 25.5166 16.7253 25.5246 16.6533 25.5406C16.5853 25.5526 16.5253 25.5826 16.4733 25.6306C16.4213 25.6746 16.3953 25.7466 16.3953 25.8466C16.3953 25.9386 16.4253 26.0126 16.4853 26.0686C16.5453 26.1206 16.6253 26.1646 16.7253 26.2006C16.8293 26.2326 16.9393 26.2646 17.0553 26.2966C17.1753 26.3286 17.2973 26.3666 17.4213 26.4106C17.5453 26.4546 17.6593 26.5126 17.7633 26.5846C17.8673 26.6566 17.9513 26.7506 18.0153 26.8666C18.0793 26.9786 18.1113 27.1226 18.1113 27.2986C18.1113 27.5026 18.0513 27.6766 17.9313 27.8206C17.8113 27.9646 17.6613 28.0746 17.4813 28.1506C17.3013 28.2226 17.1173 28.2586 16.9293 28.2586C16.6933 28.2586 16.4573 28.2186 16.2213 28.1386C15.9853 28.0546 15.7893 27.9086 15.6333 27.7006ZM18.7498 25.0486H20.1718C20.2678 25.0486 20.3478 25.0806 20.4118 25.1446C20.4758 25.2086 20.5078 25.2886 20.5078 25.3846C20.5078 25.4766 20.4758 25.5546 20.4118 25.6186C20.3478 25.6786 20.2678 25.7086 20.1718 25.7086H18.7498C18.6538 25.7086 18.5738 25.6766 18.5098 25.6126C18.4458 25.5486 18.4138 25.4686 18.4138 25.3726C18.4138 25.2806 18.4458 25.2046 18.5098 25.1446C18.5738 25.0806 18.6538 25.0486 18.7498 25.0486ZM19.3918 24.2986C19.4958 24.2986 19.5798 24.3346 19.6438 24.4066C19.7118 24.4746 19.7458 24.5606 19.7458 24.6646V27.3346C19.7458 27.3906 19.7558 27.4366 19.7758 27.4726C19.7998 27.5086 19.8298 27.5346 19.8658 27.5506C19.9058 27.5666 19.9478 27.5746 19.9918 27.5746C20.0398 27.5746 20.0838 27.5666 20.1238 27.5506C20.1638 27.5306 20.2098 27.5206 20.2618 27.5206C20.3178 27.5206 20.3678 27.5466 20.4118 27.5986C20.4598 27.6506 20.4838 27.7226 20.4838 27.8146C20.4838 27.9266 20.4218 28.0186 20.2978 28.0906C20.1778 28.1626 20.0478 28.1986 19.9078 28.1986C19.8238 28.1986 19.7298 28.1926 19.6258 28.1806C19.5258 28.1646 19.4298 28.1306 19.3378 28.0786C19.2498 28.0226 19.1758 27.9386 19.1158 27.8266C19.0558 27.7146 19.0258 27.5606 19.0258 27.3646V24.6646C19.0258 24.5606 19.0598 24.4746 19.1278 24.4066C19.1998 24.3346 19.2878 24.2986 19.3918 24.2986ZM21.5289 28.1986C21.4249 28.1986 21.3389 28.1646 21.2709 28.0966C21.2029 28.0246 21.1689 27.9366 21.1689 27.8326V25.3546C21.1689 25.2506 21.2029 25.1646 21.2709 25.0966C21.3389 25.0246 21.4249 24.9886 21.5289 24.9886C21.6329 24.9886 21.7189 25.0246 21.7869 25.0966C21.8549 25.1646 21.8889 25.2506 21.8889 25.3546V25.9186L21.8469 25.5166C21.8909 25.4206 21.9469 25.3366 22.0149 25.2646C22.0869 25.1886 22.1669 25.1266 22.2549 25.0786C22.3429 25.0266 22.4369 24.9886 22.5369 24.9646C22.6369 24.9406 22.7369 24.9286 22.8369 24.9286C22.9569 24.9286 23.0569 24.9626 23.1369 25.0306C23.2209 25.0986 23.2629 25.1786 23.2629 25.2706C23.2629 25.4026 23.2289 25.4986 23.1609 25.5586C23.0929 25.6146 23.0189 25.6426 22.9389 25.6426C22.8629 25.6426 22.7929 25.6286 22.7289 25.6006C22.6689 25.5726 22.5989 25.5586 22.5189 25.5586C22.4469 25.5586 22.3729 25.5766 22.2969 25.6126C22.2249 25.6446 22.1569 25.6966 22.0929 25.7686C22.0329 25.8406 21.9829 25.9306 21.9429 26.0386C21.9069 26.1426 21.8889 26.2666 21.8889 26.4106V27.8326C21.8889 27.9366 21.8549 28.0246 21.7869 28.0966C21.7189 28.1646 21.6329 28.1986 21.5289 28.1986ZM24.4484 27.8326C24.4484 27.9366 24.4144 28.0246 24.3464 28.0966C24.2784 28.1646 24.1924 28.1986 24.0884 28.1986C23.9844 28.1986 23.8984 28.1646 23.8304 28.0966C23.7624 28.0246 23.7284 27.9366 23.7284 27.8326V25.3546C23.7284 25.2506 23.7624 25.1646 23.8304 25.0966C23.8984 25.0246 23.9844 24.9886 24.0884 24.9886C24.1924 24.9886 24.2784 25.0246 24.3464 25.0966C24.4144 25.1646 24.4484 25.2506 24.4484 25.3546V27.8326ZM24.0824 24.5986C23.9464 24.5986 23.8504 24.5766 23.7944 24.5326C23.7384 24.4886 23.7104 24.4106 23.7104 24.2986V24.1846C23.7104 24.0686 23.7404 23.9906 23.8004 23.9506C23.8644 23.9066 23.9604 23.8846 24.0884 23.8846C24.2284 23.8846 24.3264 23.9066 24.3824 23.9506C24.4384 23.9946 24.4664 24.0726 24.4664 24.1846V24.2986C24.4664 24.4146 24.4364 24.4946 24.3764 24.5386C24.3164 24.5786 24.2184 24.5986 24.0824 24.5986ZM26.8504 24.9286C27.1304 24.9286 27.3804 25.0006 27.6004 25.1446C27.8244 25.2846 28.0004 25.4786 28.1284 25.7266C28.2604 25.9746 28.3264 26.2626 28.3264 26.5906C28.3264 26.9186 28.2604 27.2086 28.1284 27.4606C28.0004 27.7086 27.8264 27.9046 27.6064 28.0486C27.3904 28.1886 27.1464 28.2586 26.8744 28.2586C26.7144 28.2586 26.5644 28.2326 26.4244 28.1806C26.2844 28.1286 26.1604 28.0626 26.0524 27.9826C25.9484 27.9026 25.8664 27.8226 25.8064 27.7426C25.7504 27.6586 25.7224 27.5886 25.7224 27.5326L25.9084 27.4546V27.8926C25.9084 27.9966 25.8744 28.0846 25.8064 28.1566C25.7384 28.2246 25.6524 28.2586 25.5484 28.2586C25.4444 28.2586 25.3584 28.2246 25.2904 28.1566C25.2224 28.0886 25.1884 28.0006 25.1884 27.8926V24.1246C25.1884 24.0206 25.2224 23.9346 25.2904 23.8666C25.3584 23.7946 25.4444 23.7586 25.5484 23.7586C25.6524 23.7586 25.7384 23.7946 25.8064 23.8666C25.8744 23.9346 25.9084 24.0206 25.9084 24.1246V25.6486L25.8064 25.5946C25.8064 25.5426 25.8344 25.4806 25.8904 25.4086C25.9464 25.3326 26.0224 25.2586 26.1184 25.1866C26.2144 25.1106 26.3244 25.0486 26.4484 25.0006C26.5764 24.9526 26.7104 24.9286 26.8504 24.9286ZM26.7604 25.5886C26.5844 25.5886 26.4304 25.6326 26.2984 25.7206C26.1664 25.8086 26.0624 25.9286 25.9864 26.0806C25.9144 26.2286 25.8784 26.3986 25.8784 26.5906C25.8784 26.7786 25.9144 26.9506 25.9864 27.1066C26.0624 27.2586 26.1664 27.3786 26.2984 27.4666C26.4304 27.5546 26.5844 27.5986 26.7604 27.5986C26.9364 27.5986 27.0884 27.5546 27.2164 27.4666C27.3484 27.3786 27.4504 27.2586 27.5224 27.1066C27.5984 26.9506 27.6364 26.7786 27.6364 26.5906C27.6364 26.3986 27.5984 26.2286 27.5224 26.0806C27.4504 25.9286 27.3484 25.8086 27.2164 25.7206C27.0884 25.6326 26.9364 25.5886 26.7604 25.5886ZM31.338 24.9886C31.442 24.9886 31.528 25.0246 31.596 25.0966C31.664 25.1646 31.698 25.2506 31.698 25.3546V26.8786C31.698 27.3026 31.58 27.6386 31.344 27.8866C31.108 28.1346 30.768 28.2586 30.324 28.2586C29.88 28.2586 29.54 28.1346 29.304 27.8866C29.072 27.6386 28.956 27.3026 28.956 26.8786V25.3546C28.956 25.2506 28.99 25.1646 29.058 25.0966C29.126 25.0246 29.212 24.9886 29.316 24.9886C29.42 24.9886 29.506 25.0246 29.574 25.0966C29.642 25.1646 29.676 25.2506 29.676 25.3546V26.8786C29.676 27.1226 29.73 27.3046 29.838 27.4246C29.946 27.5406 30.108 27.5986 30.324 27.5986C30.544 27.5986 30.708 27.5406 30.816 27.4246C30.924 27.3046 30.978 27.1226 30.978 26.8786V25.3546C30.978 25.2506 31.012 25.1646 31.08 25.0966C31.148 25.0246 31.234 24.9886 31.338 24.9886ZM32.5135 25.0486H33.9355C34.0315 25.0486 34.1115 25.0806 34.1755 25.1446C34.2395 25.2086 34.2715 25.2886 34.2715 25.3846C34.2715 25.4766 34.2395 25.5546 34.1755 25.6186C34.1115 25.6786 34.0315 25.7086 33.9355 25.7086H32.5135C32.4175 25.7086 32.3375 25.6766 32.2735 25.6126C32.2095 25.5486 32.1775 25.4686 32.1775 25.3726C32.1775 25.2806 32.2095 25.2046 32.2735 25.1446C32.3375 25.0806 32.4175 25.0486 32.5135 25.0486ZM33.1555 24.2986C33.2595 24.2986 33.3435 24.3346 33.4075 24.4066C33.4755 24.4746 33.5095 24.5606 33.5095 24.6646V27.3346C33.5095 27.3906 33.5195 27.4366 33.5395 27.4726C33.5635 27.5086 33.5935 27.5346 33.6295 27.5506C33.6695 27.5666 33.7115 27.5746 33.7555 27.5746C33.8035 27.5746 33.8475 27.5666 33.8875 27.5506C33.9275 27.5306 33.9735 27.5206 34.0255 27.5206C34.0815 27.5206 34.1315 27.5466 34.1755 27.5986C34.2235 27.6506 34.2475 27.7226 34.2475 27.8146C34.2475 27.9266 34.1855 28.0186 34.0615 28.0906C33.9415 28.1626 33.8115 28.1986 33.6715 28.1986C33.5875 28.1986 33.4935 28.1926 33.3895 28.1806C33.2895 28.1646 33.1935 28.1306 33.1015 28.0786C33.0135 28.0226 32.9395 27.9386 32.8795 27.8266C32.8195 27.7146 32.7895 27.5606 32.7895 27.3646V24.6646C32.7895 24.5606 32.8235 24.4746 32.8915 24.4066C32.9635 24.3346 33.0515 24.2986 33.1555 24.2986ZM35.6105 27.8326C35.6105 27.9366 35.5765 28.0246 35.5085 28.0966C35.4405 28.1646 35.3545 28.1986 35.2505 28.1986C35.1465 28.1986 35.0605 28.1646 34.9925 28.0966C34.9245 28.0246 34.8905 27.9366 34.8905 27.8326V25.3546C34.8905 25.2506 34.9245 25.1646 34.9925 25.0966C35.0605 25.0246 35.1465 24.9886 35.2505 24.9886C35.3545 24.9886 35.4405 25.0246 35.5085 25.0966C35.5765 25.1646 35.6105 25.2506 35.6105 25.3546V27.8326ZM35.2445 24.5986C35.1085 24.5986 35.0125 24.5766 34.9565 24.5326C34.9005 24.4886 34.8725 24.4106 34.8725 24.2986V24.1846C34.8725 24.0686 34.9025 23.9906 34.9625 23.9506C35.0265 23.9066 35.1225 23.8846 35.2505 23.8846C35.3905 23.8846 35.4885 23.9066 35.5445 23.9506C35.6005 23.9946 35.6285 24.0726 35.6285 24.1846V24.2986C35.6285 24.4146 35.5985 24.4946 35.5385 24.5386C35.4785 24.5786 35.3805 24.5986 35.2445 24.5986ZM39.4645 26.5966C39.4645 26.9246 39.3905 27.2146 39.2425 27.4666C39.0985 27.7146 38.9025 27.9086 38.6545 28.0486C38.4105 28.1886 38.1365 28.2586 37.8325 28.2586C37.5285 28.2586 37.2525 28.1886 37.0045 28.0486C36.7605 27.9086 36.5645 27.7146 36.4165 27.4666C36.2725 27.2146 36.2005 26.9246 36.2005 26.5966C36.2005 26.2686 36.2725 25.9806 36.4165 25.7326C36.5645 25.4806 36.7605 25.2846 37.0045 25.1446C37.2525 25.0006 37.5285 24.9286 37.8325 24.9286C38.1365 24.9286 38.4105 25.0006 38.6545 25.1446C38.9025 25.2846 39.0985 25.4806 39.2425 25.7326C39.3905 25.9806 39.4645 26.2686 39.4645 26.5966ZM38.7445 26.5966C38.7445 26.3926 38.7025 26.2166 38.6185 26.0686C38.5385 25.9166 38.4285 25.7986 38.2885 25.7146C38.1525 25.6306 38.0005 25.5886 37.8325 25.5886C37.6645 25.5886 37.5105 25.6306 37.3705 25.7146C37.2345 25.7986 37.1245 25.9166 37.0405 26.0686C36.9605 26.2166 36.9205 26.3926 36.9205 26.5966C36.9205 26.7966 36.9605 26.9726 37.0405 27.1246C37.1245 27.2726 37.2345 27.3886 37.3705 27.4726C37.5105 27.5566 37.6645 27.5986 37.8325 27.5986C38.0005 27.5986 38.1525 27.5566 38.2885 27.4726C38.4285 27.3886 38.5385 27.2726 38.6185 27.1246C38.7025 26.9726 38.7445 26.7966 38.7445 26.5966ZM41.8106 24.9286C42.1066 24.9286 42.3306 24.9906 42.4826 25.1146C42.6386 25.2386 42.7446 25.4046 42.8006 25.6126C42.8606 25.8166 42.8906 26.0446 42.8906 26.2966V27.8326C42.8906 27.9366 42.8566 28.0246 42.7886 28.0966C42.7206 28.1646 42.6346 28.1986 42.5306 28.1986C42.4266 28.1986 42.3406 28.1646 42.2726 28.0966C42.2046 28.0246 42.1706 27.9366 42.1706 27.8326V26.2966C42.1706 26.1646 42.1526 26.0466 42.1166 25.9426C42.0846 25.8346 42.0246 25.7486 41.9366 25.6846C41.8486 25.6206 41.7226 25.5886 41.5586 25.5886C41.3986 25.5886 41.2626 25.6206 41.1506 25.6846C41.0426 25.7486 40.9586 25.8346 40.8986 25.9426C40.8426 26.0466 40.8146 26.1646 40.8146 26.2966V27.8326C40.8146 27.9366 40.7806 28.0246 40.7126 28.0966C40.6446 28.1646 40.5586 28.1986 40.4546 28.1986C40.3506 28.1986 40.2646 28.1646 40.1966 28.0966C40.1286 28.0246 40.0946 27.9366 40.0946 27.8326V25.3546C40.0946 25.2506 40.1286 25.1646 40.1966 25.0966C40.2646 25.0246 40.3506 24.9886 40.4546 24.9886C40.5586 24.9886 40.6446 25.0246 40.7126 25.0966C40.7806 25.1646 40.8146 25.2506 40.8146 25.3546V25.6126L40.7246 25.5946C40.7606 25.5266 40.8126 25.4546 40.8806 25.3786C40.9486 25.2986 41.0286 25.2246 41.1206 25.1566C41.2126 25.0886 41.3166 25.0346 41.4326 24.9946C41.5486 24.9506 41.6746 24.9286 41.8106 24.9286ZM11.5222 36.2586C11.2422 36.2586 10.9902 36.2246 10.7662 36.1566C10.5422 36.0846 10.3282 35.9606 10.1242 35.7846C10.0722 35.7406 10.0322 35.6906 10.0042 35.6346C9.97622 35.5786 9.96222 35.5226 9.96222 35.4666C9.96222 35.3746 9.99422 35.2946 10.0582 35.2266C10.1262 35.1546 10.2102 35.1186 10.3102 35.1186C10.3862 35.1186 10.4542 35.1426 10.5142 35.1906C10.6662 35.3146 10.8162 35.4086 10.9642 35.4726C11.1162 35.5366 11.3022 35.5686 11.5222 35.5686C11.6702 35.5686 11.8062 35.5466 11.9302 35.5026C12.0542 35.4546 12.1542 35.3926 12.2302 35.3166C12.3062 35.2366 12.3442 35.1466 12.3442 35.0466C12.3442 34.9266 12.3082 34.8246 12.2362 34.7406C12.1642 34.6566 12.0542 34.5866 11.9062 34.5306C11.7582 34.4706 11.5702 34.4246 11.3422 34.3926C11.1262 34.3606 10.9362 34.3126 10.7722 34.2486C10.6082 34.1806 10.4702 34.0966 10.3582 33.9966C10.2502 33.8926 10.1682 33.7726 10.1122 33.6366C10.0562 33.4966 10.0282 33.3406 10.0282 33.1686C10.0282 32.9086 10.0942 32.6866 10.2262 32.5026C10.3622 32.3186 10.5442 32.1786 10.7722 32.0826C11.0002 31.9866 11.2522 31.9386 11.5282 31.9386C11.7882 31.9386 12.0282 31.9786 12.2482 32.0586C12.4722 32.1346 12.6542 32.2326 12.7942 32.3526C12.9102 32.4446 12.9682 32.5506 12.9682 32.6706C12.9682 32.7586 12.9342 32.8386 12.8662 32.9106C12.7982 32.9826 12.7182 33.0186 12.6262 33.0186C12.5662 33.0186 12.5122 33.0006 12.4642 32.9646C12.4002 32.9086 12.3142 32.8566 12.2062 32.8086C12.0982 32.7566 11.9842 32.7146 11.8642 32.6826C11.7442 32.6466 11.6322 32.6286 11.5282 32.6286C11.3562 32.6286 11.2102 32.6506 11.0902 32.6946C10.9742 32.7386 10.8862 32.7986 10.8262 32.8746C10.7662 32.9506 10.7362 33.0386 10.7362 33.1386C10.7362 33.2586 10.7702 33.3586 10.8382 33.4386C10.9102 33.5146 11.0122 33.5766 11.1442 33.6246C11.2762 33.6686 11.4342 33.7086 11.6182 33.7446C11.8582 33.7886 12.0682 33.8406 12.2482 33.9006C12.4322 33.9606 12.5842 34.0386 12.7042 34.1346C12.8242 34.2266 12.9142 34.3446 12.9742 34.4886C13.0342 34.6286 13.0642 34.8006 13.0642 35.0046C13.0642 35.2646 12.9922 35.4886 12.8482 35.6766C12.7042 35.8646 12.5142 36.0086 12.2782 36.1086C12.0462 36.2086 11.7942 36.2586 11.5222 36.2586ZM16.0743 32.9886C16.1783 32.9886 16.2643 33.0246 16.3323 33.0966C16.4003 33.1646 16.4343 33.2506 16.4343 33.3546V35.9046C16.4343 36.2726 16.3643 36.5646 16.2243 36.7806C16.0883 37.0006 15.9043 37.1586 15.6723 37.2546C15.4403 37.3506 15.1803 37.3986 14.8923 37.3986C14.7643 37.3986 14.6283 37.3886 14.4843 37.3686C14.3403 37.3486 14.2223 37.3186 14.1303 37.2786C14.0103 37.2266 13.9263 37.1606 13.8783 37.0806C13.8343 37.0046 13.8263 36.9226 13.8543 36.8346C13.8903 36.7186 13.9483 36.6386 14.0283 36.5946C14.1083 36.5546 14.1923 36.5506 14.2803 36.5826C14.3443 36.6026 14.4283 36.6326 14.5323 36.6726C14.6363 36.7166 14.7563 36.7386 14.8923 36.7386C15.0763 36.7386 15.2283 36.7126 15.3483 36.6606C15.4723 36.6126 15.5643 36.5286 15.6243 36.4086C15.6883 36.2926 15.7203 36.1326 15.7203 35.9286V35.5266L15.8463 35.6706C15.7783 35.8026 15.6923 35.9126 15.5883 36.0006C15.4883 36.0846 15.3683 36.1486 15.2283 36.1926C15.0883 36.2366 14.9283 36.2586 14.7483 36.2586C14.5363 36.2586 14.3503 36.2106 14.1903 36.1146C14.0343 36.0146 13.9123 35.8786 13.8243 35.7066C13.7363 35.5306 13.6923 35.3306 13.6923 35.1066V33.3546C13.6923 33.2506 13.7263 33.1646 13.7943 33.0966C13.8623 33.0246 13.9483 32.9886 14.0523 32.9886C14.1563 32.9886 14.2423 33.0246 14.3103 33.0966C14.3783 33.1646 14.4123 33.2506 14.4123 33.3546V34.8906C14.4123 35.1506 14.4683 35.3346 14.5803 35.4426C14.6963 35.5466 14.8563 35.5986 15.0603 35.5986C15.2003 35.5986 15.3183 35.5726 15.4143 35.5206C15.5103 35.4646 15.5843 35.3846 15.6363 35.2806C15.6883 35.1726 15.7143 35.0426 15.7143 34.8906V33.3546C15.7143 33.2506 15.7483 33.1646 15.8163 33.0966C15.8843 33.0246 15.9703 32.9886 16.0743 32.9886ZM16.9692 35.7006C16.9292 35.6446 16.9112 35.5726 16.9152 35.4846C16.9192 35.3966 16.9712 35.3206 17.0712 35.2566C17.1352 35.2166 17.2032 35.2006 17.2752 35.2086C17.3472 35.2126 17.4172 35.2486 17.4852 35.3166C17.6012 35.4326 17.7232 35.5226 17.8512 35.5866C17.9792 35.6506 18.1392 35.6826 18.3312 35.6826C18.3912 35.6786 18.4572 35.6706 18.5292 35.6586C18.6012 35.6426 18.6632 35.6106 18.7152 35.5626C18.7712 35.5106 18.7992 35.4326 18.7992 35.3286C18.7992 35.2406 18.7692 35.1706 18.7092 35.1186C18.6492 35.0666 18.5692 35.0226 18.4692 34.9866C18.3732 34.9506 18.2652 34.9166 18.1452 34.8846C18.0212 34.8486 17.8932 34.8086 17.7612 34.7646C17.6332 34.7206 17.5152 34.6646 17.4072 34.5966C17.2992 34.5246 17.2112 34.4306 17.1432 34.3146C17.0752 34.1986 17.0412 34.0526 17.0412 33.8766C17.0412 33.6766 17.0972 33.5066 17.2092 33.3666C17.3212 33.2266 17.4652 33.1186 17.6412 33.0426C17.8212 32.9666 18.0092 32.9286 18.2052 32.9286C18.3292 32.9286 18.4592 32.9446 18.5952 32.9766C18.7312 33.0046 18.8612 33.0526 18.9852 33.1206C19.1092 33.1846 19.2132 33.2706 19.2972 33.3786C19.3412 33.4386 19.3672 33.5106 19.3752 33.5946C19.3832 33.6786 19.3452 33.7546 19.2612 33.8226C19.2012 33.8706 19.1312 33.8926 19.0512 33.8886C18.9712 33.8806 18.9052 33.8526 18.8532 33.8046C18.7852 33.7166 18.6932 33.6466 18.5772 33.5946C18.4652 33.5426 18.3352 33.5166 18.1872 33.5166C18.1272 33.5166 18.0612 33.5246 17.9892 33.5406C17.9212 33.5526 17.8612 33.5826 17.8092 33.6306C17.7572 33.6746 17.7312 33.7466 17.7312 33.8466C17.7312 33.9386 17.7612 34.0126 17.8212 34.0686C17.8812 34.1206 17.9612 34.1646 18.0612 34.2006C18.1652 34.2326 18.2752 34.2646 18.3912 34.2966C18.5112 34.3286 18.6332 34.3666 18.7572 34.4106C18.8812 34.4546 18.9952 34.5126 19.0992 34.5846C19.2032 34.6566 19.2872 34.7506 19.3512 34.8666C19.4152 34.9786 19.4472 35.1226 19.4472 35.2986C19.4472 35.5026 19.3872 35.6766 19.2672 35.8206C19.1472 35.9646 18.9972 36.0746 18.8172 36.1506C18.6372 36.2226 18.4532 36.2586 18.2652 36.2586C18.0292 36.2586 17.7932 36.2186 17.5572 36.1386C17.3212 36.0546 17.1252 35.9086 16.9692 35.7006ZM20.0857 33.0486H21.5077C21.6037 33.0486 21.6837 33.0806 21.7477 33.1446C21.8117 33.2086 21.8437 33.2886 21.8437 33.3846C21.8437 33.4766 21.8117 33.5546 21.7477 33.6186C21.6837 33.6786 21.6037 33.7086 21.5077 33.7086H20.0857C19.9897 33.7086 19.9097 33.6766 19.8457 33.6126C19.7817 33.5486 19.7497 33.4686 19.7497 33.3726C19.7497 33.2806 19.7817 33.2046 19.8457 33.1446C19.9097 33.0806 19.9897 33.0486 20.0857 33.0486ZM20.7277 32.2986C20.8317 32.2986 20.9157 32.3346 20.9797 32.4066C21.0477 32.4746 21.0817 32.5606 21.0817 32.6646V35.3346C21.0817 35.3906 21.0917 35.4366 21.1117 35.4726C21.1357 35.5086 21.1657 35.5346 21.2017 35.5506C21.2417 35.5666 21.2837 35.5746 21.3277 35.5746C21.3757 35.5746 21.4197 35.5666 21.4597 35.5506C21.4997 35.5306 21.5457 35.5206 21.5977 35.5206C21.6537 35.5206 21.7037 35.5466 21.7477 35.5986C21.7957 35.6506 21.8197 35.7226 21.8197 35.8146C21.8197 35.9266 21.7577 36.0186 21.6337 36.0906C21.5137 36.1626 21.3837 36.1986 21.2437 36.1986C21.1597 36.1986 21.0657 36.1926 20.9617 36.1806C20.8617 36.1646 20.7657 36.1306 20.6737 36.0786C20.5857 36.0226 20.5117 35.9386 20.4517 35.8266C20.3917 35.7146 20.3617 35.5606 20.3617 35.3646V32.6646C20.3617 32.5606 20.3957 32.4746 20.4637 32.4066C20.5357 32.3346 20.6237 32.2986 20.7277 32.2986ZM23.9875 36.2586C23.6475 36.2586 23.3515 36.1886 23.0995 36.0486C22.8515 35.9046 22.6595 35.7106 22.5235 35.4666C22.3915 35.2226 22.3255 34.9466 22.3255 34.6386C22.3255 34.2786 22.3975 33.9726 22.5415 33.7206C22.6895 33.4646 22.8815 33.2686 23.1175 33.1326C23.3535 32.9966 23.6035 32.9286 23.8675 32.9286C24.0715 32.9286 24.2635 32.9706 24.4435 33.0546C24.6275 33.1386 24.7895 33.2546 24.9295 33.4026C25.0695 33.5466 25.1795 33.7146 25.2595 33.9066C25.3435 34.0986 25.3855 34.3026 25.3855 34.5186C25.3815 34.6146 25.3435 34.6926 25.2715 34.7526C25.1995 34.8126 25.1155 34.8426 25.0195 34.8426H22.7275L22.5475 34.2426H24.7495L24.6175 34.3626V34.2006C24.6095 34.0846 24.5675 33.9806 24.4915 33.8886C24.4195 33.7966 24.3275 33.7246 24.2155 33.6726C24.1075 33.6166 23.9915 33.5886 23.8675 33.5886C23.7475 33.5886 23.6355 33.6046 23.5315 33.6366C23.4275 33.6686 23.3375 33.7226 23.2615 33.7986C23.1855 33.8746 23.1255 33.9766 23.0815 34.1046C23.0375 34.2326 23.0155 34.3946 23.0155 34.5906C23.0155 34.8066 23.0595 34.9906 23.1475 35.1426C23.2395 35.2906 23.3555 35.4046 23.4955 35.4846C23.6395 35.5606 23.7915 35.5986 23.9515 35.5986C24.0995 35.5986 24.2175 35.5866 24.3055 35.5626C24.3935 35.5386 24.4635 35.5106 24.5155 35.4786C24.5715 35.4426 24.6215 35.4126 24.6655 35.3886C24.7375 35.3526 24.8055 35.3346 24.8695 35.3346C24.9575 35.3346 25.0295 35.3646 25.0855 35.4246C25.1455 35.4846 25.1755 35.5546 25.1755 35.6346C25.1755 35.7426 25.1195 35.8406 25.0075 35.9286C24.9035 36.0166 24.7575 36.0946 24.5695 36.1626C24.3815 36.2266 24.1875 36.2586 23.9875 36.2586ZM27.7006 32.9286C28.0206 32.9286 28.2566 33.0066 28.4086 33.1626C28.5606 33.3146 28.6606 33.5126 28.7086 33.7566L28.6066 33.7026L28.6546 33.6066C28.7026 33.5146 28.7766 33.4166 28.8766 33.3126C28.9766 33.2046 29.0966 33.1146 29.2366 33.0426C29.3806 32.9666 29.5406 32.9286 29.7166 32.9286C30.0046 32.9286 30.2226 32.9906 30.3706 33.1146C30.5226 33.2386 30.6266 33.4046 30.6826 33.6126C30.7386 33.8166 30.7666 34.0446 30.7666 34.2966V35.8326C30.7666 35.9366 30.7326 36.0246 30.6646 36.0966C30.5966 36.1646 30.5106 36.1986 30.4066 36.1986C30.3026 36.1986 30.2166 36.1646 30.1486 36.0966C30.0806 36.0246 30.0466 35.9366 30.0466 35.8326V34.2966C30.0466 34.1646 30.0306 34.0466 29.9986 33.9426C29.9666 33.8346 29.9086 33.7486 29.8246 33.6846C29.7406 33.6206 29.6206 33.5886 29.4646 33.5886C29.3126 33.5886 29.1826 33.6206 29.0746 33.6846C28.9666 33.7486 28.8846 33.8346 28.8286 33.9426C28.7766 34.0466 28.7506 34.1646 28.7506 34.2966V35.8326C28.7506 35.9366 28.7166 36.0246 28.6486 36.0966C28.5806 36.1646 28.4946 36.1986 28.3906 36.1986C28.2866 36.1986 28.2006 36.1646 28.1326 36.0966C28.0646 36.0246 28.0306 35.9366 28.0306 35.8326V34.2966C28.0306 34.1646 28.0146 34.0466 27.9826 33.9426C27.9506 33.8346 27.8926 33.7486 27.8086 33.6846C27.7246 33.6206 27.6046 33.5886 27.4486 33.5886C27.2966 33.5886 27.1666 33.6206 27.0586 33.6846C26.9506 33.7486 26.8686 33.8346 26.8126 33.9426C26.7606 34.0466 26.7346 34.1646 26.7346 34.2966V35.8326C26.7346 35.9366 26.7006 36.0246 26.6326 36.0966C26.5646 36.1646 26.4786 36.1986 26.3746 36.1986C26.2706 36.1986 26.1846 36.1646 26.1166 36.0966C26.0486 36.0246 26.0146 35.9366 26.0146 35.8326V33.3546C26.0146 33.2506 26.0486 33.1646 26.1166 33.0966C26.1846 33.0246 26.2706 32.9886 26.3746 32.9886C26.4786 32.9886 26.5646 33.0246 26.6326 33.0966C26.7006 33.1646 26.7346 33.2506 26.7346 33.3546V33.6126L26.6446 33.5946C26.6806 33.5266 26.7306 33.4546 26.7946 33.3786C26.8586 33.2986 26.9366 33.2246 27.0286 33.1566C27.1206 33.0886 27.2226 33.0346 27.3346 32.9946C27.4466 32.9506 27.5686 32.9286 27.7006 32.9286Z" fill="white"/>
</svg>
