<svg width="50" height="50" viewBox="0 0 50 50" fill="none" xmlns="http://www.w3.org/2000/svg">
<circle cx="25" cy="25" r="25" fill="white"/>
<path d="M10.5382 15.4986H12.5482C12.6522 15.4986 12.7382 15.5326 12.8062 15.6006C12.8782 15.6646 12.9142 15.7486 12.9142 15.8526C12.9142 15.9526 12.8782 16.0346 12.8062 16.0986C12.7382 16.1586 12.6522 16.1886 12.5482 16.1886H10.8682L10.9222 16.0866V17.2566L10.8742 17.2086H12.2782C12.3822 17.2086 12.4682 17.2426 12.5362 17.3106C12.6082 17.3746 12.6442 17.4586 12.6442 17.5626C12.6442 17.6626 12.6082 17.7446 12.5362 17.8086C12.4682 17.8686 12.3822 17.8986 12.2782 17.8986H10.8922L10.9222 17.8506V19.0626L10.8742 19.0086H12.5482C12.6522 19.0086 12.7382 19.0446 12.8062 19.1166C12.8782 19.1846 12.9142 19.2646 12.9142 19.3566C12.9142 19.4566 12.8782 19.5386 12.8062 19.6026C12.7382 19.6666 12.6522 19.6986 12.5482 19.6986H10.5382C10.4342 19.6986 10.3462 19.6646 10.2742 19.5966C10.2062 19.5246 10.1722 19.4366 10.1722 19.3326V15.8646C10.1722 15.7606 10.2062 15.6746 10.2742 15.6066C10.3462 15.5346 10.4342 15.4986 10.5382 15.4986ZM16.1445 16.4886C16.2485 16.4886 16.3345 16.5226 16.4025 16.5906C16.4705 16.6586 16.5045 16.7466 16.5045 16.8546V20.5326C16.5045 20.6366 16.4705 20.7226 16.4025 20.7906C16.3345 20.8626 16.2485 20.8986 16.1445 20.8986C16.0405 20.8986 15.9545 20.8626 15.8865 20.7906C15.8185 20.7226 15.7845 20.6366 15.7845 20.5326V19.0386L15.9165 19.0926C15.9165 19.1446 15.8885 19.2086 15.8325 19.2846C15.7765 19.3566 15.7005 19.4286 15.6045 19.5006C15.5085 19.5726 15.3945 19.6346 15.2625 19.6866C15.1345 19.7346 14.9945 19.7586 14.8425 19.7586C14.5665 19.7586 14.3165 19.6886 14.0925 19.5486C13.8685 19.4046 13.6905 19.2086 13.5585 18.9606C13.4305 18.7086 13.3665 18.4206 13.3665 18.0966C13.3665 17.7686 13.4305 17.4806 13.5585 17.2326C13.6905 16.9806 13.8665 16.7846 14.0865 16.6446C14.3065 16.5006 14.5505 16.4286 14.8185 16.4286C14.9905 16.4286 15.1485 16.4546 15.2925 16.5066C15.4365 16.5586 15.5605 16.6246 15.6645 16.7046C15.7725 16.7846 15.8545 16.8666 15.9105 16.9506C15.9705 17.0306 16.0005 17.0986 16.0005 17.1546L15.7845 17.2326V16.8546C15.7845 16.7506 15.8185 16.6646 15.8865 16.5966C15.9545 16.5246 16.0405 16.4886 16.1445 16.4886ZM14.9325 19.0986C15.1085 19.0986 15.2625 19.0546 15.3945 18.9666C15.5265 18.8786 15.6285 18.7586 15.7005 18.6066C15.7765 18.4546 15.8145 18.2846 15.8145 18.0966C15.8145 17.9046 15.7765 17.7326 15.7005 17.5806C15.6285 17.4286 15.5265 17.3086 15.3945 17.2206C15.2625 17.1326 15.1085 17.0886 14.9325 17.0886C14.7605 17.0886 14.6085 17.1326 14.4765 17.2206C14.3445 17.3086 14.2405 17.4286 14.1645 17.5806C14.0925 17.7326 14.0565 17.9046 14.0565 18.0966C14.0565 18.2846 14.0925 18.4546 14.1645 18.6066C14.2405 18.7586 14.3445 18.8786 14.4765 18.9666C14.6085 19.0546 14.7605 19.0986 14.9325 19.0986ZM19.6661 16.4886C19.7701 16.4886 19.8561 16.5246 19.9241 16.5966C19.9921 16.6646 20.0261 16.7506 20.0261 16.8546V18.3786C20.0261 18.8026 19.9081 19.1386 19.6721 19.3866C19.4361 19.6346 19.0961 19.7586 18.6521 19.7586C18.2081 19.7586 17.8681 19.6346 17.6321 19.3866C17.4001 19.1386 17.2841 18.8026 17.2841 18.3786V16.8546C17.2841 16.7506 17.3181 16.6646 17.3861 16.5966C17.4541 16.5246 17.5401 16.4886 17.6441 16.4886C17.7481 16.4886 17.8341 16.5246 17.9021 16.5966C17.9701 16.6646 18.0041 16.7506 18.0041 16.8546V18.3786C18.0041 18.6226 18.0581 18.8046 18.1661 18.9246C18.2741 19.0406 18.4361 19.0986 18.6521 19.0986C18.8721 19.0986 19.0361 19.0406 19.1441 18.9246C19.2521 18.8046 19.3061 18.6226 19.3061 18.3786V16.8546C19.3061 16.7506 19.3401 16.6646 19.4081 16.5966C19.4761 16.5246 19.5621 16.4886 19.6661 16.4886ZM21.4836 19.3326C21.4836 19.4366 21.4496 19.5246 21.3816 19.5966C21.3136 19.6646 21.2276 19.6986 21.1236 19.6986C21.0196 19.6986 20.9336 19.6646 20.8656 19.5966C20.7976 19.5246 20.7636 19.4366 20.7636 19.3326V16.8546C20.7636 16.7506 20.7976 16.6646 20.8656 16.5966C20.9336 16.5246 21.0196 16.4886 21.1236 16.4886C21.2276 16.4886 21.3136 16.5246 21.3816 16.5966C21.4496 16.6646 21.4836 16.7506 21.4836 16.8546V19.3326ZM21.1176 16.0986C20.9816 16.0986 20.8856 16.0766 20.8296 16.0326C20.7736 15.9886 20.7456 15.9106 20.7456 15.7986V15.6846C20.7456 15.5686 20.7756 15.4906 20.8356 15.4506C20.8996 15.4066 20.9956 15.3846 21.1236 15.3846C21.2636 15.3846 21.3616 15.4066 21.4176 15.4506C21.4736 15.4946 21.5016 15.5726 21.5016 15.6846V15.7986C21.5016 15.9146 21.4716 15.9946 21.4116 16.0386C21.3516 16.0786 21.2536 16.0986 21.1176 16.0986ZM23.8856 16.4286C24.1656 16.4286 24.4156 16.5006 24.6356 16.6446C24.8596 16.7846 25.0356 16.9786 25.1636 17.2266C25.2956 17.4746 25.3616 17.7626 25.3616 18.0906C25.3616 18.4186 25.2956 18.7086 25.1636 18.9606C25.0356 19.2086 24.8616 19.4046 24.6416 19.5486C24.4256 19.6886 24.1816 19.7586 23.9096 19.7586C23.7496 19.7586 23.5996 19.7326 23.4596 19.6806C23.3196 19.6286 23.1956 19.5626 23.0876 19.4826C22.9836 19.4026 22.9016 19.3226 22.8416 19.2426C22.7856 19.1586 22.7576 19.0886 22.7576 19.0326L22.9436 18.9546V20.5326C22.9436 20.6366 22.9096 20.7226 22.8416 20.7906C22.7736 20.8626 22.6876 20.8986 22.5836 20.8986C22.4796 20.8986 22.3936 20.8646 22.3256 20.7966C22.2576 20.7286 22.2236 20.6406 22.2236 20.5326V16.8546C22.2236 16.7506 22.2576 16.6646 22.3256 16.5966C22.3936 16.5246 22.4796 16.4886 22.5836 16.4886C22.6876 16.4886 22.7736 16.5246 22.8416 16.5966C22.9096 16.6646 22.9436 16.7506 22.9436 16.8546V17.1486L22.8416 17.0946C22.8416 17.0426 22.8696 16.9806 22.9256 16.9086C22.9816 16.8326 23.0576 16.7586 23.1536 16.6866C23.2496 16.6106 23.3596 16.5486 23.4836 16.5006C23.6116 16.4526 23.7456 16.4286 23.8856 16.4286ZM23.7956 17.0886C23.6196 17.0886 23.4656 17.1326 23.3336 17.2206C23.2016 17.3086 23.0976 17.4286 23.0216 17.5806C22.9496 17.7286 22.9136 17.8986 22.9136 18.0906C22.9136 18.2786 22.9496 18.4506 23.0216 18.6066C23.0976 18.7586 23.2016 18.8786 23.3336 18.9666C23.4656 19.0546 23.6196 19.0986 23.7956 19.0986C23.9716 19.0986 24.1236 19.0546 24.2516 18.9666C24.3836 18.8786 24.4856 18.7586 24.5576 18.6066C24.6336 18.4506 24.6716 18.2786 24.6716 18.0906C24.6716 17.8986 24.6336 17.7286 24.5576 17.5806C24.4856 17.4286 24.3836 17.3086 24.2516 17.2206C24.1236 17.1326 23.9716 17.0886 23.7956 17.0886ZM27.6771 16.4286C27.9971 16.4286 28.2331 16.5066 28.3851 16.6626C28.5371 16.8146 28.6371 17.0126 28.6851 17.2566L28.5831 17.2026L28.6311 17.1066C28.6791 17.0146 28.7531 16.9166 28.8531 16.8126C28.9531 16.7046 29.0731 16.6146 29.2131 16.5426C29.3571 16.4666 29.5171 16.4286 29.6931 16.4286C29.9811 16.4286 30.1991 16.4906 30.3471 16.6146C30.4991 16.7386 30.6031 16.9046 30.6591 17.1126C30.7151 17.3166 30.7431 17.5446 30.7431 17.7966V19.3326C30.7431 19.4366 30.7091 19.5246 30.6411 19.5966C30.5731 19.6646 30.4871 19.6986 30.3831 19.6986C30.2791 19.6986 30.1931 19.6646 30.1251 19.5966C30.0571 19.5246 30.0231 19.4366 30.0231 19.3326V17.7966C30.0231 17.6646 30.0071 17.5466 29.9751 17.4426C29.9431 17.3346 29.8851 17.2486 29.8011 17.1846C29.7171 17.1206 29.5971 17.0886 29.4411 17.0886C29.2891 17.0886 29.1591 17.1206 29.0511 17.1846C28.9431 17.2486 28.8611 17.3346 28.8051 17.4426C28.7531 17.5466 28.7271 17.6646 28.7271 17.7966V19.3326C28.7271 19.4366 28.6931 19.5246 28.6251 19.5966C28.5571 19.6646 28.4711 19.6986 28.3671 19.6986C28.2631 19.6986 28.1771 19.6646 28.1091 19.5966C28.0411 19.5246 28.0071 19.4366 28.0071 19.3326V17.7966C28.0071 17.6646 27.9911 17.5466 27.9591 17.4426C27.9271 17.3346 27.8691 17.2486 27.7851 17.1846C27.7011 17.1206 27.5811 17.0886 27.4251 17.0886C27.2731 17.0886 27.1431 17.1206 27.0351 17.1846C26.9271 17.2486 26.8451 17.3346 26.7891 17.4426C26.7371 17.5466 26.7111 17.6646 26.7111 17.7966V19.3326C26.7111 19.4366 26.6771 19.5246 26.6091 19.5966C26.5411 19.6646 26.4551 19.6986 26.3511 19.6986C26.2471 19.6986 26.1611 19.6646 26.0931 19.5966C26.0251 19.5246 25.9911 19.4366 25.9911 19.3326V16.8546C25.9911 16.7506 26.0251 16.6646 26.0931 16.5966C26.1611 16.5246 26.2471 16.4886 26.3511 16.4886C26.4551 16.4886 26.5411 16.5246 26.6091 16.5966C26.6771 16.6646 26.7111 16.7506 26.7111 16.8546V17.1126L26.6211 17.0946C26.6571 17.0266 26.7071 16.9546 26.7711 16.8786C26.8351 16.7986 26.9131 16.7246 27.0051 16.6566C27.0971 16.5886 27.1991 16.5346 27.3111 16.4946C27.4231 16.4506 27.5451 16.4286 27.6771 16.4286ZM33.0344 19.7586C32.6944 19.7586 32.3984 19.6886 32.1464 19.5486C31.8984 19.4046 31.7064 19.2106 31.5704 18.9666C31.4384 18.7226 31.3724 18.4466 31.3724 18.1386C31.3724 17.7786 31.4444 17.4726 31.5884 17.2206C31.7364 16.9646 31.9284 16.7686 32.1644 16.6326C32.4004 16.4966 32.6504 16.4286 32.9144 16.4286C33.1184 16.4286 33.3104 16.4706 33.4904 16.5546C33.6744 16.6386 33.8364 16.7546 33.9764 16.9026C34.1164 17.0466 34.2264 17.2146 34.3064 17.4066C34.3904 17.5986 34.4324 17.8026 34.4324 18.0186C34.4284 18.1146 34.3904 18.1926 34.3184 18.2526C34.2464 18.3126 34.1624 18.3426 34.0664 18.3426H31.7744L31.5944 17.7426H33.7964L33.6644 17.8626V17.7006C33.6564 17.5846 33.6144 17.4806 33.5384 17.3886C33.4664 17.2966 33.3744 17.2246 33.2624 17.1726C33.1544 17.1166 33.0384 17.0886 32.9144 17.0886C32.7944 17.0886 32.6824 17.1046 32.5784 17.1366C32.4744 17.1686 32.3844 17.2226 32.3084 17.2986C32.2324 17.3746 32.1724 17.4766 32.1284 17.6046C32.0844 17.7326 32.0624 17.8946 32.0624 18.0906C32.0624 18.3066 32.1064 18.4906 32.1944 18.6426C32.2864 18.7906 32.4024 18.9046 32.5424 18.9846C32.6864 19.0606 32.8384 19.0986 32.9984 19.0986C33.1464 19.0986 33.2644 19.0866 33.3524 19.0626C33.4404 19.0386 33.5104 19.0106 33.5624 18.9786C33.6184 18.9426 33.6684 18.9126 33.7124 18.8886C33.7844 18.8526 33.8524 18.8346 33.9164 18.8346C34.0044 18.8346 34.0764 18.8646 34.1324 18.9246C34.1924 18.9846 34.2224 19.0546 34.2224 19.1346C34.2224 19.2426 34.1664 19.3406 34.0544 19.4286C33.9504 19.5166 33.8044 19.5946 33.6164 19.6626C33.4284 19.7266 33.2344 19.7586 33.0344 19.7586ZM36.7774 16.4286C37.0734 16.4286 37.2974 16.4906 37.4494 16.6146C37.6054 16.7386 37.7114 16.9046 37.7674 17.1126C37.8274 17.3166 37.8574 17.5446 37.8574 17.7966V19.3326C37.8574 19.4366 37.8234 19.5246 37.7554 19.5966C37.6874 19.6646 37.6014 19.6986 37.4974 19.6986C37.3934 19.6986 37.3074 19.6646 37.2394 19.5966C37.1714 19.5246 37.1374 19.4366 37.1374 19.3326V17.7966C37.1374 17.6646 37.1194 17.5466 37.0834 17.4426C37.0514 17.3346 36.9914 17.2486 36.9034 17.1846C36.8154 17.1206 36.6894 17.0886 36.5254 17.0886C36.3654 17.0886 36.2294 17.1206 36.1174 17.1846C36.0094 17.2486 35.9254 17.3346 35.8654 17.4426C35.8094 17.5466 35.7814 17.6646 35.7814 17.7966V19.3326C35.7814 19.4366 35.7474 19.5246 35.6794 19.5966C35.6114 19.6646 35.5254 19.6986 35.4214 19.6986C35.3174 19.6986 35.2314 19.6646 35.1634 19.5966C35.0954 19.5246 35.0614 19.4366 35.0614 19.3326V16.8546C35.0614 16.7506 35.0954 16.6646 35.1634 16.5966C35.2314 16.5246 35.3174 16.4886 35.4214 16.4886C35.5254 16.4886 35.6114 16.5246 35.6794 16.5966C35.7474 16.6646 35.7814 16.7506 35.7814 16.8546V17.1126L35.6914 17.0946C35.7274 17.0266 35.7794 16.9546 35.8474 16.8786C35.9154 16.7986 35.9954 16.7246 36.0874 16.6566C36.1794 16.5886 36.2834 16.5346 36.3994 16.4946C36.5154 16.4506 36.6414 16.4286 36.7774 16.4286ZM38.6717 16.5486H40.0937C40.1897 16.5486 40.2697 16.5806 40.3337 16.6446C40.3977 16.7086 40.4297 16.7886 40.4297 16.8846C40.4297 16.9766 40.3977 17.0546 40.3337 17.1186C40.2697 17.1786 40.1897 17.2086 40.0937 17.2086H38.6717C38.5757 17.2086 38.4957 17.1766 38.4317 17.1126C38.3677 17.0486 38.3357 16.9686 38.3357 16.8726C38.3357 16.7806 38.3677 16.7046 38.4317 16.6446C38.4957 16.5806 38.5757 16.5486 38.6717 16.5486ZM39.3137 15.7986C39.4177 15.7986 39.5017 15.8346 39.5657 15.9066C39.6337 15.9746 39.6677 16.0606 39.6677 16.1646V18.8346C39.6677 18.8906 39.6777 18.9366 39.6977 18.9726C39.7217 19.0086 39.7517 19.0346 39.7877 19.0506C39.8277 19.0666 39.8697 19.0746 39.9137 19.0746C39.9617 19.0746 40.0057 19.0666 40.0457 19.0506C40.0857 19.0306 40.1317 19.0206 40.1837 19.0206C40.2397 19.0206 40.2897 19.0466 40.3337 19.0986C40.3817 19.1506 40.4057 19.2226 40.4057 19.3146C40.4057 19.4266 40.3437 19.5186 40.2197 19.5906C40.0997 19.6626 39.9697 19.6986 39.8297 19.6986C39.7457 19.6986 39.6517 19.6926 39.5477 19.6806C39.4477 19.6646 39.3517 19.6306 39.2597 19.5786C39.1717 19.5226 39.0977 19.4386 39.0377 19.3266C38.9777 19.2146 38.9477 19.0606 38.9477 18.8646V16.1646C38.9477 16.0606 38.9817 15.9746 39.0497 15.9066C39.1217 15.8346 39.2097 15.7986 39.3137 15.7986ZM11.9722 23.4986C12.2602 23.4986 12.5162 23.5526 12.7402 23.6606C12.9642 23.7686 13.1522 23.9206 13.3042 24.1166C13.4602 24.3086 13.5762 24.5326 13.6522 24.7886C13.7322 25.0406 13.7722 25.3106 13.7722 25.5986C13.7722 25.9866 13.7022 26.3406 13.5622 26.6606C13.4222 26.9766 13.2182 27.2286 12.9502 27.4166C12.6862 27.6046 12.3602 27.6986 11.9722 27.6986H10.5382C10.4342 27.6986 10.3462 27.6646 10.2742 27.5966C10.2062 27.5246 10.1722 27.4366 10.1722 27.3326V23.8646C10.1722 23.7606 10.2062 23.6746 10.2742 23.6066C10.3462 23.5346 10.4342 23.4986 10.5382 23.4986H11.9722ZM11.9122 27.0086C12.1642 27.0086 12.3702 26.9446 12.5302 26.8166C12.6902 26.6846 12.8062 26.5126 12.8782 26.3006C12.9542 26.0846 12.9922 25.8506 12.9922 25.5986C12.9922 25.4106 12.9702 25.2326 12.9262 25.0646C12.8862 24.8926 12.8222 24.7426 12.7342 24.6146C12.6462 24.4826 12.5342 24.3786 12.3982 24.3026C12.2622 24.2266 12.1002 24.1886 11.9122 24.1886H10.8622L10.9222 24.1346V27.0746L10.8862 27.0086H11.9122ZM15.0793 27.3326C15.0793 27.4366 15.0453 27.5246 14.9773 27.5966C14.9093 27.6646 14.8233 27.6986 14.7193 27.6986C14.6153 27.6986 14.5293 27.6646 14.4613 27.5966C14.3933 27.5246 14.3593 27.4366 14.3593 27.3326V24.8546C14.3593 24.7506 14.3933 24.6646 14.4613 24.5966C14.5293 24.5246 14.6153 24.4886 14.7193 24.4886C14.8233 24.4886 14.9093 24.5246 14.9773 24.5966C15.0453 24.6646 15.0793 24.7506 15.0793 24.8546V27.3326ZM14.7133 24.0986C14.5773 24.0986 14.4813 24.0766 14.4253 24.0326C14.3693 23.9886 14.3413 23.9106 14.3413 23.7986V23.6846C14.3413 23.5686 14.3713 23.4906 14.4313 23.4506C14.4953 23.4066 14.5913 23.3846 14.7193 23.3846C14.8593 23.3846 14.9573 23.4066 15.0133 23.4506C15.0693 23.4946 15.0973 23.5726 15.0973 23.6846V23.7986C15.0973 23.9146 15.0673 23.9946 15.0073 24.0386C14.9473 24.0786 14.8493 24.0986 14.7133 24.0986ZM15.6333 27.2006C15.5933 27.1446 15.5753 27.0726 15.5793 26.9846C15.5833 26.8966 15.6353 26.8206 15.7353 26.7566C15.7993 26.7166 15.8673 26.7006 15.9393 26.7086C16.0113 26.7126 16.0813 26.7486 16.1493 26.8166C16.2653 26.9326 16.3873 27.0226 16.5153 27.0866C16.6433 27.1506 16.8033 27.1826 16.9953 27.1826C17.0553 27.1786 17.1213 27.1706 17.1933 27.1586C17.2653 27.1426 17.3273 27.1106 17.3793 27.0626C17.4353 27.0106 17.4633 26.9326 17.4633 26.8286C17.4633 26.7406 17.4333 26.6706 17.3733 26.6186C17.3133 26.5666 17.2333 26.5226 17.1333 26.4866C17.0373 26.4506 16.9293 26.4166 16.8093 26.3846C16.6853 26.3486 16.5573 26.3086 16.4253 26.2646C16.2973 26.2206 16.1793 26.1646 16.0713 26.0966C15.9633 26.0246 15.8753 25.9306 15.8073 25.8146C15.7393 25.6986 15.7053 25.5526 15.7053 25.3766C15.7053 25.1766 15.7613 25.0066 15.8733 24.8666C15.9853 24.7266 16.1293 24.6186 16.3053 24.5426C16.4853 24.4666 16.6733 24.4286 16.8693 24.4286C16.9933 24.4286 17.1233 24.4446 17.2593 24.4766C17.3953 24.5046 17.5253 24.5526 17.6493 24.6206C17.7733 24.6846 17.8773 24.7706 17.9613 24.8786C18.0053 24.9386 18.0313 25.0106 18.0393 25.0946C18.0473 25.1786 18.0093 25.2546 17.9253 25.3226C17.8653 25.3706 17.7953 25.3926 17.7153 25.3886C17.6353 25.3806 17.5693 25.3526 17.5173 25.3046C17.4493 25.2166 17.3573 25.1466 17.2413 25.0946C17.1293 25.0426 16.9993 25.0166 16.8513 25.0166C16.7913 25.0166 16.7253 25.0246 16.6533 25.0406C16.5853 25.0526 16.5253 25.0826 16.4733 25.1306C16.4213 25.1746 16.3953 25.2466 16.3953 25.3466C16.3953 25.4386 16.4253 25.5126 16.4853 25.5686C16.5453 25.6206 16.6253 25.6646 16.7253 25.7006C16.8293 25.7326 16.9393 25.7646 17.0553 25.7966C17.1753 25.8286 17.2973 25.8666 17.4213 25.9106C17.5453 25.9546 17.6593 26.0126 17.7633 26.0846C17.8673 26.1566 17.9513 26.2506 18.0153 26.3666C18.0793 26.4786 18.1113 26.6226 18.1113 26.7986C18.1113 27.0026 18.0513 27.1766 17.9313 27.3206C17.8113 27.4646 17.6613 27.5746 17.4813 27.6506C17.3013 27.7226 17.1173 27.7586 16.9293 27.7586C16.6933 27.7586 16.4573 27.7186 16.2213 27.6386C15.9853 27.5546 15.7893 27.4086 15.6333 27.2006ZM18.7498 24.5486H20.1718C20.2678 24.5486 20.3478 24.5806 20.4118 24.6446C20.4758 24.7086 20.5078 24.7886 20.5078 24.8846C20.5078 24.9766 20.4758 25.0546 20.4118 25.1186C20.3478 25.1786 20.2678 25.2086 20.1718 25.2086H18.7498C18.6538 25.2086 18.5738 25.1766 18.5098 25.1126C18.4458 25.0486 18.4138 24.9686 18.4138 24.8726C18.4138 24.7806 18.4458 24.7046 18.5098 24.6446C18.5738 24.5806 18.6538 24.5486 18.7498 24.5486ZM19.3918 23.7986C19.4958 23.7986 19.5798 23.8346 19.6438 23.9066C19.7118 23.9746 19.7458 24.0606 19.7458 24.1646V26.8346C19.7458 26.8906 19.7558 26.9366 19.7758 26.9726C19.7998 27.0086 19.8298 27.0346 19.8658 27.0506C19.9058 27.0666 19.9478 27.0746 19.9918 27.0746C20.0398 27.0746 20.0838 27.0666 20.1238 27.0506C20.1638 27.0306 20.2098 27.0206 20.2618 27.0206C20.3178 27.0206 20.3678 27.0466 20.4118 27.0986C20.4598 27.1506 20.4838 27.2226 20.4838 27.3146C20.4838 27.4266 20.4218 27.5186 20.2978 27.5906C20.1778 27.6626 20.0478 27.6986 19.9078 27.6986C19.8238 27.6986 19.7298 27.6926 19.6258 27.6806C19.5258 27.6646 19.4298 27.6306 19.3378 27.5786C19.2498 27.5226 19.1758 27.4386 19.1158 27.3266C19.0558 27.2146 19.0258 27.0606 19.0258 26.8646V24.1646C19.0258 24.0606 19.0598 23.9746 19.1278 23.9066C19.1998 23.8346 19.2878 23.7986 19.3918 23.7986ZM21.5289 27.6986C21.4249 27.6986 21.3389 27.6646 21.2709 27.5966C21.2029 27.5246 21.1689 27.4366 21.1689 27.3326V24.8546C21.1689 24.7506 21.2029 24.6646 21.2709 24.5966C21.3389 24.5246 21.4249 24.4886 21.5289 24.4886C21.6329 24.4886 21.7189 24.5246 21.7869 24.5966C21.8549 24.6646 21.8889 24.7506 21.8889 24.8546V25.4186L21.8469 25.0166C21.8909 24.9206 21.9469 24.8366 22.0149 24.7646C22.0869 24.6886 22.1669 24.6266 22.2549 24.5786C22.3429 24.5266 22.4369 24.4886 22.5369 24.4646C22.6369 24.4406 22.7369 24.4286 22.8369 24.4286C22.9569 24.4286 23.0569 24.4626 23.1369 24.5306C23.2209 24.5986 23.2629 24.6786 23.2629 24.7706C23.2629 24.9026 23.2289 24.9986 23.1609 25.0586C23.0929 25.1146 23.0189 25.1426 22.9389 25.1426C22.8629 25.1426 22.7929 25.1286 22.7289 25.1006C22.6689 25.0726 22.5989 25.0586 22.5189 25.0586C22.4469 25.0586 22.3729 25.0766 22.2969 25.1126C22.2249 25.1446 22.1569 25.1966 22.0929 25.2686C22.0329 25.3406 21.9829 25.4306 21.9429 25.5386C21.9069 25.6426 21.8889 25.7666 21.8889 25.9106V27.3326C21.8889 27.4366 21.8549 27.5246 21.7869 27.5966C21.7189 27.6646 21.6329 27.6986 21.5289 27.6986ZM24.4484 27.3326C24.4484 27.4366 24.4144 27.5246 24.3464 27.5966C24.2784 27.6646 24.1924 27.6986 24.0884 27.6986C23.9844 27.6986 23.8984 27.6646 23.8304 27.5966C23.7624 27.5246 23.7284 27.4366 23.7284 27.3326V24.8546C23.7284 24.7506 23.7624 24.6646 23.8304 24.5966C23.8984 24.5246 23.9844 24.4886 24.0884 24.4886C24.1924 24.4886 24.2784 24.5246 24.3464 24.5966C24.4144 24.6646 24.4484 24.7506 24.4484 24.8546V27.3326ZM24.0824 24.0986C23.9464 24.0986 23.8504 24.0766 23.7944 24.0326C23.7384 23.9886 23.7104 23.9106 23.7104 23.7986V23.6846C23.7104 23.5686 23.7404 23.4906 23.8004 23.4506C23.8644 23.4066 23.9604 23.3846 24.0884 23.3846C24.2284 23.3846 24.3264 23.4066 24.3824 23.4506C24.4384 23.4946 24.4664 23.5726 24.4664 23.6846V23.7986C24.4664 23.9146 24.4364 23.9946 24.3764 24.0386C24.3164 24.0786 24.2184 24.0986 24.0824 24.0986ZM26.8504 24.4286C27.1304 24.4286 27.3804 24.5006 27.6004 24.6446C27.8244 24.7846 28.0004 24.9786 28.1284 25.2266C28.2604 25.4746 28.3264 25.7626 28.3264 26.0906C28.3264 26.4186 28.2604 26.7086 28.1284 26.9606C28.0004 27.2086 27.8264 27.4046 27.6064 27.5486C27.3904 27.6886 27.1464 27.7586 26.8744 27.7586C26.7144 27.7586 26.5644 27.7326 26.4244 27.6806C26.2844 27.6286 26.1604 27.5626 26.0524 27.4826C25.9484 27.4026 25.8664 27.3226 25.8064 27.2426C25.7504 27.1586 25.7224 27.0886 25.7224 27.0326L25.9084 26.9546V27.3926C25.9084 27.4966 25.8744 27.5846 25.8064 27.6566C25.7384 27.7246 25.6524 27.7586 25.5484 27.7586C25.4444 27.7586 25.3584 27.7246 25.2904 27.6566C25.2224 27.5886 25.1884 27.5006 25.1884 27.3926V23.6246C25.1884 23.5206 25.2224 23.4346 25.2904 23.3666C25.3584 23.2946 25.4444 23.2586 25.5484 23.2586C25.6524 23.2586 25.7384 23.2946 25.8064 23.3666C25.8744 23.4346 25.9084 23.5206 25.9084 23.6246V25.1486L25.8064 25.0946C25.8064 25.0426 25.8344 24.9806 25.8904 24.9086C25.9464 24.8326 26.0224 24.7586 26.1184 24.6866C26.2144 24.6106 26.3244 24.5486 26.4484 24.5006C26.5764 24.4526 26.7104 24.4286 26.8504 24.4286ZM26.7604 25.0886C26.5844 25.0886 26.4304 25.1326 26.2984 25.2206C26.1664 25.3086 26.0624 25.4286 25.9864 25.5806C25.9144 25.7286 25.8784 25.8986 25.8784 26.0906C25.8784 26.2786 25.9144 26.4506 25.9864 26.6066C26.0624 26.7586 26.1664 26.8786 26.2984 26.9666C26.4304 27.0546 26.5844 27.0986 26.7604 27.0986C26.9364 27.0986 27.0884 27.0546 27.2164 26.9666C27.3484 26.8786 27.4504 26.7586 27.5224 26.6066C27.5984 26.4506 27.6364 26.2786 27.6364 26.0906C27.6364 25.8986 27.5984 25.7286 27.5224 25.5806C27.4504 25.4286 27.3484 25.3086 27.2164 25.2206C27.0884 25.1326 26.9364 25.0886 26.7604 25.0886ZM31.338 24.4886C31.442 24.4886 31.528 24.5246 31.596 24.5966C31.664 24.6646 31.698 24.7506 31.698 24.8546V26.3786C31.698 26.8026 31.58 27.1386 31.344 27.3866C31.108 27.6346 30.768 27.7586 30.324 27.7586C29.88 27.7586 29.54 27.6346 29.304 27.3866C29.072 27.1386 28.956 26.8026 28.956 26.3786V24.8546C28.956 24.7506 28.99 24.6646 29.058 24.5966C29.126 24.5246 29.212 24.4886 29.316 24.4886C29.42 24.4886 29.506 24.5246 29.574 24.5966C29.642 24.6646 29.676 24.7506 29.676 24.8546V26.3786C29.676 26.6226 29.73 26.8046 29.838 26.9246C29.946 27.0406 30.108 27.0986 30.324 27.0986C30.544 27.0986 30.708 27.0406 30.816 26.9246C30.924 26.8046 30.978 26.6226 30.978 26.3786V24.8546C30.978 24.7506 31.012 24.6646 31.08 24.5966C31.148 24.5246 31.234 24.4886 31.338 24.4886ZM32.5135 24.5486H33.9355C34.0315 24.5486 34.1115 24.5806 34.1755 24.6446C34.2395 24.7086 34.2715 24.7886 34.2715 24.8846C34.2715 24.9766 34.2395 25.0546 34.1755 25.1186C34.1115 25.1786 34.0315 25.2086 33.9355 25.2086H32.5135C32.4175 25.2086 32.3375 25.1766 32.2735 25.1126C32.2095 25.0486 32.1775 24.9686 32.1775 24.8726C32.1775 24.7806 32.2095 24.7046 32.2735 24.6446C32.3375 24.5806 32.4175 24.5486 32.5135 24.5486ZM33.1555 23.7986C33.2595 23.7986 33.3435 23.8346 33.4075 23.9066C33.4755 23.9746 33.5095 24.0606 33.5095 24.1646V26.8346C33.5095 26.8906 33.5195 26.9366 33.5395 26.9726C33.5635 27.0086 33.5935 27.0346 33.6295 27.0506C33.6695 27.0666 33.7115 27.0746 33.7555 27.0746C33.8035 27.0746 33.8475 27.0666 33.8875 27.0506C33.9275 27.0306 33.9735 27.0206 34.0255 27.0206C34.0815 27.0206 34.1315 27.0466 34.1755 27.0986C34.2235 27.1506 34.2475 27.2226 34.2475 27.3146C34.2475 27.4266 34.1855 27.5186 34.0615 27.5906C33.9415 27.6626 33.8115 27.6986 33.6715 27.6986C33.5875 27.6986 33.4935 27.6926 33.3895 27.6806C33.2895 27.6646 33.1935 27.6306 33.1015 27.5786C33.0135 27.5226 32.9395 27.4386 32.8795 27.3266C32.8195 27.2146 32.7895 27.0606 32.7895 26.8646V24.1646C32.7895 24.0606 32.8235 23.9746 32.8915 23.9066C32.9635 23.8346 33.0515 23.7986 33.1555 23.7986ZM35.6105 27.3326C35.6105 27.4366 35.5765 27.5246 35.5085 27.5966C35.4405 27.6646 35.3545 27.6986 35.2505 27.6986C35.1465 27.6986 35.0605 27.6646 34.9925 27.5966C34.9245 27.5246 34.8905 27.4366 34.8905 27.3326V24.8546C34.8905 24.7506 34.9245 24.6646 34.9925 24.5966C35.0605 24.5246 35.1465 24.4886 35.2505 24.4886C35.3545 24.4886 35.4405 24.5246 35.5085 24.5966C35.5765 24.6646 35.6105 24.7506 35.6105 24.8546V27.3326ZM35.2445 24.0986C35.1085 24.0986 35.0125 24.0766 34.9565 24.0326C34.9005 23.9886 34.8725 23.9106 34.8725 23.7986V23.6846C34.8725 23.5686 34.9025 23.4906 34.9625 23.4506C35.0265 23.4066 35.1225 23.3846 35.2505 23.3846C35.3905 23.3846 35.4885 23.4066 35.5445 23.4506C35.6005 23.4946 35.6285 23.5726 35.6285 23.6846V23.7986C35.6285 23.9146 35.5985 23.9946 35.5385 24.0386C35.4785 24.0786 35.3805 24.0986 35.2445 24.0986ZM39.4645 26.0966C39.4645 26.4246 39.3905 26.7146 39.2425 26.9666C39.0985 27.2146 38.9025 27.4086 38.6545 27.5486C38.4105 27.6886 38.1365 27.7586 37.8325 27.7586C37.5285 27.7586 37.2525 27.6886 37.0045 27.5486C36.7605 27.4086 36.5645 27.2146 36.4165 26.9666C36.2725 26.7146 36.2005 26.4246 36.2005 26.0966C36.2005 25.7686 36.2725 25.4806 36.4165 25.2326C36.5645 24.9806 36.7605 24.7846 37.0045 24.6446C37.2525 24.5006 37.5285 24.4286 37.8325 24.4286C38.1365 24.4286 38.4105 24.5006 38.6545 24.6446C38.9025 24.7846 39.0985 24.9806 39.2425 25.2326C39.3905 25.4806 39.4645 25.7686 39.4645 26.0966ZM38.7445 26.0966C38.7445 25.8926 38.7025 25.7166 38.6185 25.5686C38.5385 25.4166 38.4285 25.2986 38.2885 25.2146C38.1525 25.1306 38.0005 25.0886 37.8325 25.0886C37.6645 25.0886 37.5105 25.1306 37.3705 25.2146C37.2345 25.2986 37.1245 25.4166 37.0405 25.5686C36.9605 25.7166 36.9205 25.8926 36.9205 26.0966C36.9205 26.2966 36.9605 26.4726 37.0405 26.6246C37.1245 26.7726 37.2345 26.8886 37.3705 26.9726C37.5105 27.0566 37.6645 27.0986 37.8325 27.0986C38.0005 27.0986 38.1525 27.0566 38.2885 26.9726C38.4285 26.8886 38.5385 26.7726 38.6185 26.6246C38.7025 26.4726 38.7445 26.2966 38.7445 26.0966ZM41.8107 24.4286C42.1067 24.4286 42.3307 24.4906 42.4827 24.6146C42.6387 24.7386 42.7447 24.9046 42.8007 25.1126C42.8607 25.3166 42.8907 25.5446 42.8907 25.7966V27.3326C42.8907 27.4366 42.8567 27.5246 42.7887 27.5966C42.7207 27.6646 42.6347 27.6986 42.5307 27.6986C42.4267 27.6986 42.3407 27.6646 42.2727 27.5966C42.2047 27.5246 42.1707 27.4366 42.1707 27.3326V25.7966C42.1707 25.6646 42.1527 25.5466 42.1167 25.4426C42.0847 25.3346 42.0247 25.2486 41.9367 25.1846C41.8487 25.1206 41.7227 25.0886 41.5587 25.0886C41.3987 25.0886 41.2627 25.1206 41.1507 25.1846C41.0427 25.2486 40.9587 25.3346 40.8987 25.4426C40.8427 25.5466 40.8147 25.6646 40.8147 25.7966V27.3326C40.8147 27.4366 40.7807 27.5246 40.7127 27.5966C40.6447 27.6646 40.5587 27.6986 40.4547 27.6986C40.3507 27.6986 40.2647 27.6646 40.1967 27.5966C40.1287 27.5246 40.0947 27.4366 40.0947 27.3326V24.8546C40.0947 24.7506 40.1287 24.6646 40.1967 24.5966C40.2647 24.5246 40.3507 24.4886 40.4547 24.4886C40.5587 24.4886 40.6447 24.5246 40.7127 24.5966C40.7807 24.6646 40.8147 24.7506 40.8147 24.8546V25.1126L40.7247 25.0946C40.7607 25.0266 40.8127 24.9546 40.8807 24.8786C40.9487 24.7986 41.0287 24.7246 41.1207 24.6566C41.2127 24.5886 41.3167 24.5346 41.4327 24.4946C41.5487 24.4506 41.6747 24.4286 41.8107 24.4286ZM11.5222 35.7586C11.2422 35.7586 10.9902 35.7246 10.7662 35.6566C10.5422 35.5846 10.3282 35.4606 10.1242 35.2846C10.0722 35.2406 10.0322 35.1906 10.0042 35.1346C9.97623 35.0786 9.96223 35.0226 9.96223 34.9666C9.96223 34.8746 9.99423 34.7946 10.0582 34.7266C10.1262 34.6546 10.2102 34.6186 10.3102 34.6186C10.3862 34.6186 10.4542 34.6426 10.5142 34.6906C10.6662 34.8146 10.8162 34.9086 10.9642 34.9726C11.1162 35.0366 11.3022 35.0686 11.5222 35.0686C11.6702 35.0686 11.8062 35.0466 11.9302 35.0026C12.0542 34.9546 12.1542 34.8926 12.2302 34.8166C12.3062 34.7366 12.3442 34.6466 12.3442 34.5466C12.3442 34.4266 12.3082 34.3246 12.2362 34.2406C12.1642 34.1566 12.0542 34.0866 11.9062 34.0306C11.7582 33.9706 11.5702 33.9246 11.3422 33.8926C11.1262 33.8606 10.9362 33.8126 10.7722 33.7486C10.6082 33.6806 10.4702 33.5966 10.3582 33.4966C10.2502 33.3926 10.1682 33.2726 10.1122 33.1366C10.0562 32.9966 10.0282 32.8406 10.0282 32.6686C10.0282 32.4086 10.0942 32.1866 10.2262 32.0026C10.3622 31.8186 10.5442 31.6786 10.7722 31.5826C11.0002 31.4866 11.2522 31.4386 11.5282 31.4386C11.7882 31.4386 12.0282 31.4786 12.2482 31.5586C12.4722 31.6346 12.6542 31.7326 12.7942 31.8526C12.9102 31.9446 12.9682 32.0506 12.9682 32.1706C12.9682 32.2586 12.9342 32.3386 12.8662 32.4106C12.7982 32.4826 12.7182 32.5186 12.6262 32.5186C12.5662 32.5186 12.5122 32.5006 12.4642 32.4646C12.4002 32.4086 12.3142 32.3566 12.2062 32.3086C12.0982 32.2566 11.9842 32.2146 11.8642 32.1826C11.7442 32.1466 11.6322 32.1286 11.5282 32.1286C11.3562 32.1286 11.2102 32.1506 11.0902 32.1946C10.9742 32.2386 10.8862 32.2986 10.8262 32.3746C10.7662 32.4506 10.7362 32.5386 10.7362 32.6386C10.7362 32.7586 10.7702 32.8586 10.8382 32.9386C10.9102 33.0146 11.0122 33.0766 11.1442 33.1246C11.2762 33.1686 11.4342 33.2086 11.6182 33.2446C11.8582 33.2886 12.0682 33.3406 12.2482 33.4006C12.4322 33.4606 12.5842 33.5386 12.7042 33.6346C12.8242 33.7266 12.9142 33.8446 12.9742 33.9886C13.0342 34.1286 13.0642 34.3006 13.0642 34.5046C13.0642 34.7646 12.9922 34.9886 12.8482 35.1766C12.7042 35.3646 12.5142 35.5086 12.2782 35.6086C12.0462 35.7086 11.7942 35.7586 11.5222 35.7586ZM16.0743 32.4886C16.1783 32.4886 16.2643 32.5246 16.3323 32.5966C16.4003 32.6646 16.4343 32.7506 16.4343 32.8546V35.4046C16.4343 35.7726 16.3643 36.0646 16.2243 36.2806C16.0883 36.5006 15.9043 36.6586 15.6723 36.7546C15.4403 36.8506 15.1803 36.8986 14.8923 36.8986C14.7643 36.8986 14.6283 36.8886 14.4843 36.8686C14.3403 36.8486 14.2223 36.8186 14.1303 36.7786C14.0103 36.7266 13.9263 36.6606 13.8783 36.5806C13.8343 36.5046 13.8263 36.4226 13.8543 36.3346C13.8903 36.2186 13.9483 36.1386 14.0283 36.0946C14.1083 36.0546 14.1923 36.0506 14.2803 36.0826C14.3443 36.1026 14.4283 36.1326 14.5323 36.1726C14.6363 36.2166 14.7563 36.2386 14.8923 36.2386C15.0763 36.2386 15.2283 36.2126 15.3483 36.1606C15.4723 36.1126 15.5643 36.0286 15.6243 35.9086C15.6883 35.7926 15.7203 35.6326 15.7203 35.4286V35.0266L15.8463 35.1706C15.7783 35.3026 15.6923 35.4126 15.5883 35.5006C15.4883 35.5846 15.3683 35.6486 15.2283 35.6926C15.0883 35.7366 14.9283 35.7586 14.7483 35.7586C14.5363 35.7586 14.3503 35.7106 14.1903 35.6146C14.0343 35.5146 13.9123 35.3786 13.8243 35.2066C13.7363 35.0306 13.6923 34.8306 13.6923 34.6066V32.8546C13.6923 32.7506 13.7263 32.6646 13.7943 32.5966C13.8623 32.5246 13.9483 32.4886 14.0523 32.4886C14.1563 32.4886 14.2423 32.5246 14.3103 32.5966C14.3783 32.6646 14.4123 32.7506 14.4123 32.8546V34.3906C14.4123 34.6506 14.4683 34.8346 14.5803 34.9426C14.6963 35.0466 14.8563 35.0986 15.0603 35.0986C15.2003 35.0986 15.3183 35.0726 15.4143 35.0206C15.5103 34.9646 15.5843 34.8846 15.6363 34.7806C15.6883 34.6726 15.7143 34.5426 15.7143 34.3906V32.8546C15.7143 32.7506 15.7483 32.6646 15.8163 32.5966C15.8843 32.5246 15.9703 32.4886 16.0743 32.4886ZM16.9692 35.2006C16.9292 35.1446 16.9112 35.0726 16.9152 34.9846C16.9192 34.8966 16.9712 34.8206 17.0712 34.7566C17.1352 34.7166 17.2032 34.7006 17.2752 34.7086C17.3472 34.7126 17.4172 34.7486 17.4852 34.8166C17.6012 34.9326 17.7232 35.0226 17.8512 35.0866C17.9792 35.1506 18.1392 35.1826 18.3312 35.1826C18.3912 35.1786 18.4572 35.1706 18.5292 35.1586C18.6012 35.1426 18.6632 35.1106 18.7152 35.0626C18.7712 35.0106 18.7992 34.9326 18.7992 34.8286C18.7992 34.7406 18.7692 34.6706 18.7092 34.6186C18.6492 34.5666 18.5692 34.5226 18.4692 34.4866C18.3732 34.4506 18.2652 34.4166 18.1452 34.3846C18.0212 34.3486 17.8932 34.3086 17.7612 34.2646C17.6332 34.2206 17.5152 34.1646 17.4072 34.0966C17.2992 34.0246 17.2112 33.9306 17.1432 33.8146C17.0752 33.6986 17.0412 33.5526 17.0412 33.3766C17.0412 33.1766 17.0972 33.0066 17.2092 32.8666C17.3212 32.7266 17.4652 32.6186 17.6412 32.5426C17.8212 32.4666 18.0092 32.4286 18.2052 32.4286C18.3292 32.4286 18.4592 32.4446 18.5952 32.4766C18.7312 32.5046 18.8612 32.5526 18.9852 32.6206C19.1092 32.6846 19.2132 32.7706 19.2972 32.8786C19.3412 32.9386 19.3672 33.0106 19.3752 33.0946C19.3832 33.1786 19.3452 33.2546 19.2612 33.3226C19.2012 33.3706 19.1312 33.3926 19.0512 33.3886C18.9712 33.3806 18.9052 33.3526 18.8532 33.3046C18.7852 33.2166 18.6932 33.1466 18.5772 33.0946C18.4652 33.0426 18.3352 33.0166 18.1872 33.0166C18.1272 33.0166 18.0612 33.0246 17.9892 33.0406C17.9212 33.0526 17.8612 33.0826 17.8092 33.1306C17.7572 33.1746 17.7312 33.2466 17.7312 33.3466C17.7312 33.4386 17.7612 33.5126 17.8212 33.5686C17.8812 33.6206 17.9612 33.6646 18.0612 33.7006C18.1652 33.7326 18.2752 33.7646 18.3912 33.7966C18.5112 33.8286 18.6332 33.8666 18.7572 33.9106C18.8812 33.9546 18.9952 34.0126 19.0992 34.0846C19.2032 34.1566 19.2872 34.2506 19.3512 34.3666C19.4152 34.4786 19.4472 34.6226 19.4472 34.7986C19.4472 35.0026 19.3872 35.1766 19.2672 35.3206C19.1472 35.4646 18.9972 35.5746 18.8172 35.6506C18.6372 35.7226 18.4532 35.7586 18.2652 35.7586C18.0292 35.7586 17.7932 35.7186 17.5572 35.6386C17.3212 35.5546 17.1252 35.4086 16.9692 35.2006ZM20.0857 32.5486H21.5077C21.6037 32.5486 21.6837 32.5806 21.7477 32.6446C21.8117 32.7086 21.8437 32.7886 21.8437 32.8846C21.8437 32.9766 21.8117 33.0546 21.7477 33.1186C21.6837 33.1786 21.6037 33.2086 21.5077 33.2086H20.0857C19.9897 33.2086 19.9097 33.1766 19.8457 33.1126C19.7817 33.0486 19.7497 32.9686 19.7497 32.8726C19.7497 32.7806 19.7817 32.7046 19.8457 32.6446C19.9097 32.5806 19.9897 32.5486 20.0857 32.5486ZM20.7277 31.7986C20.8317 31.7986 20.9157 31.8346 20.9797 31.9066C21.0477 31.9746 21.0817 32.0606 21.0817 32.1646V34.8346C21.0817 34.8906 21.0917 34.9366 21.1117 34.9726C21.1357 35.0086 21.1657 35.0346 21.2017 35.0506C21.2417 35.0666 21.2837 35.0746 21.3277 35.0746C21.3757 35.0746 21.4197 35.0666 21.4597 35.0506C21.4997 35.0306 21.5457 35.0206 21.5977 35.0206C21.6537 35.0206 21.7037 35.0466 21.7477 35.0986C21.7957 35.1506 21.8197 35.2226 21.8197 35.3146C21.8197 35.4266 21.7577 35.5186 21.6337 35.5906C21.5137 35.6626 21.3837 35.6986 21.2437 35.6986C21.1597 35.6986 21.0657 35.6926 20.9617 35.6806C20.8617 35.6646 20.7657 35.6306 20.6737 35.5786C20.5857 35.5226 20.5117 35.4386 20.4517 35.3266C20.3917 35.2146 20.3617 35.0606 20.3617 34.8646V32.1646C20.3617 32.0606 20.3957 31.9746 20.4637 31.9066C20.5357 31.8346 20.6237 31.7986 20.7277 31.7986ZM23.9875 35.7586C23.6475 35.7586 23.3515 35.6886 23.0995 35.5486C22.8515 35.4046 22.6595 35.2106 22.5235 34.9666C22.3915 34.7226 22.3255 34.4466 22.3255 34.1386C22.3255 33.7786 22.3975 33.4726 22.5415 33.2206C22.6895 32.9646 22.8815 32.7686 23.1175 32.6326C23.3535 32.4966 23.6035 32.4286 23.8675 32.4286C24.0715 32.4286 24.2635 32.4706 24.4435 32.5546C24.6275 32.6386 24.7895 32.7546 24.9295 32.9026C25.0695 33.0466 25.1795 33.2146 25.2595 33.4066C25.3435 33.5986 25.3855 33.8026 25.3855 34.0186C25.3815 34.1146 25.3435 34.1926 25.2715 34.2526C25.1995 34.3126 25.1155 34.3426 25.0195 34.3426H22.7275L22.5475 33.7426H24.7495L24.6175 33.8626V33.7006C24.6095 33.5846 24.5675 33.4806 24.4915 33.3886C24.4195 33.2966 24.3275 33.2246 24.2155 33.1726C24.1075 33.1166 23.9915 33.0886 23.8675 33.0886C23.7475 33.0886 23.6355 33.1046 23.5315 33.1366C23.4275 33.1686 23.3375 33.2226 23.2615 33.2986C23.1855 33.3746 23.1255 33.4766 23.0815 33.6046C23.0375 33.7326 23.0155 33.8946 23.0155 34.0906C23.0155 34.3066 23.0595 34.4906 23.1475 34.6426C23.2395 34.7906 23.3555 34.9046 23.4955 34.9846C23.6395 35.0606 23.7915 35.0986 23.9515 35.0986C24.0995 35.0986 24.2175 35.0866 24.3055 35.0626C24.3935 35.0386 24.4635 35.0106 24.5155 34.9786C24.5715 34.9426 24.6215 34.9126 24.6655 34.8886C24.7375 34.8526 24.8055 34.8346 24.8695 34.8346C24.9575 34.8346 25.0295 34.8646 25.0855 34.9246C25.1455 34.9846 25.1755 35.0546 25.1755 35.1346C25.1755 35.2426 25.1195 35.3406 25.0075 35.4286C24.9035 35.5166 24.7575 35.5946 24.5695 35.6626C24.3815 35.7266 24.1875 35.7586 23.9875 35.7586ZM27.7006 32.4286C28.0206 32.4286 28.2566 32.5066 28.4086 32.6626C28.5606 32.8146 28.6606 33.0126 28.7086 33.2566L28.6066 33.2026L28.6546 33.1066C28.7026 33.0146 28.7766 32.9166 28.8766 32.8126C28.9766 32.7046 29.0966 32.6146 29.2366 32.5426C29.3806 32.4666 29.5406 32.4286 29.7166 32.4286C30.0046 32.4286 30.2226 32.4906 30.3706 32.6146C30.5226 32.7386 30.6266 32.9046 30.6826 33.1126C30.7386 33.3166 30.7666 33.5446 30.7666 33.7966V35.3326C30.7666 35.4366 30.7326 35.5246 30.6646 35.5966C30.5966 35.6646 30.5106 35.6986 30.4066 35.6986C30.3026 35.6986 30.2166 35.6646 30.1486 35.5966C30.0806 35.5246 30.0466 35.4366 30.0466 35.3326V33.7966C30.0466 33.6646 30.0306 33.5466 29.9986 33.4426C29.9666 33.3346 29.9086 33.2486 29.8246 33.1846C29.7406 33.1206 29.6206 33.0886 29.4646 33.0886C29.3126 33.0886 29.1826 33.1206 29.0746 33.1846C28.9666 33.2486 28.8846 33.3346 28.8286 33.4426C28.7766 33.5466 28.7506 33.6646 28.7506 33.7966V35.3326C28.7506 35.4366 28.7166 35.5246 28.6486 35.5966C28.5806 35.6646 28.4946 35.6986 28.3906 35.6986C28.2866 35.6986 28.2006 35.6646 28.1326 35.5966C28.0646 35.5246 28.0306 35.4366 28.0306 35.3326V33.7966C28.0306 33.6646 28.0146 33.5466 27.9826 33.4426C27.9506 33.3346 27.8926 33.2486 27.8086 33.1846C27.7246 33.1206 27.6046 33.0886 27.4486 33.0886C27.2966 33.0886 27.1666 33.1206 27.0586 33.1846C26.9506 33.2486 26.8686 33.3346 26.8126 33.4426C26.7606 33.5466 26.7346 33.6646 26.7346 33.7966V35.3326C26.7346 35.4366 26.7006 35.5246 26.6326 35.5966C26.5646 35.6646 26.4786 35.6986 26.3746 35.6986C26.2706 35.6986 26.1846 35.6646 26.1166 35.5966C26.0486 35.5246 26.0146 35.4366 26.0146 35.3326V32.8546C26.0146 32.7506 26.0486 32.6646 26.1166 32.5966C26.1846 32.5246 26.2706 32.4886 26.3746 32.4886C26.4786 32.4886 26.5646 32.5246 26.6326 32.5966C26.7006 32.6646 26.7346 32.7506 26.7346 32.8546V33.1126L26.6446 33.0946C26.6806 33.0266 26.7306 32.9546 26.7946 32.8786C26.8586 32.7986 26.9366 32.7246 27.0286 32.6566C27.1206 32.5886 27.2226 32.5346 27.3346 32.4946C27.4466 32.4506 27.5686 32.4286 27.7006 32.4286Z" fill="#1B60AC"/>
</svg>
